<svg width="26" height="7" viewBox="0 0 26 7" fill="none" xmlns="http://www.w3.org/2000/svg">
<path d="M5.82836 4.08413C5.05257 5.34042 4.66467 5.96857 4.1012 5.96367C3.53774 5.95878 3.16082 5.32399 2.40697 4.0544L1.79372 3.02159C0.997869 1.68126 0.599944 1.0111 0.887577 0.505792C1.17521 0.000487968 1.95461 0.000488002 3.51341 0.00048807L4.76445 0.000488125C6.35117 0.000488194 7.14453 0.000488229 7.43061 0.513362C7.71668 1.02624 7.29983 1.70126 6.46614 3.05132L5.82836 4.08413Z" fill="#FF5E56"/>
<path d="M14.2283 4.08413C13.4525 5.34043 13.0646 5.96857 12.5011 5.96368C11.9376 5.95878 11.5607 5.32399 10.8069 4.0544L10.1936 3.02159C9.39777 1.68126 8.99985 1.0111 9.28748 0.505792C9.57511 0.000487968 10.3545 0.000488002 11.9133 0.00048807L13.1643 0.000488125C14.7511 0.000488194 15.5444 0.000488229 15.8305 0.513362C16.1166 1.02624 15.6997 1.70126 14.866 3.05132L14.2283 4.08413Z" fill="#FF5E56"/>
<path d="M22.6766 4.22024C21.914 5.45519 21.5327 6.07266 20.975 6.07266C20.4172 6.07266 20.0359 5.45519 19.2733 4.22024L18.6019 3.13311C17.7682 1.78305 17.3514 1.10802 17.6375 0.595149C17.9235 0.0822751 18.7169 0.0822751 20.3036 0.0822752L21.6463 0.0822752C23.233 0.0822753 24.0264 0.0822753 24.3124 0.595149C24.5985 1.10802 24.1817 1.78305 23.348 3.13311L22.6766 4.22024Z" fill="#FF5E56"/>
</svg>
