<svg width="24" height="9" viewBox="0 0 24 9" fill="none" xmlns="http://www.w3.org/2000/svg">
<path d="M4.08364 2.52174C5.33994 3.29753 5.96808 3.68543 5.96319 4.24889C5.95829 4.81236 5.3235 5.18928 4.05391 5.94313L3.02111 6.55638C1.68077 7.35223 1.01061 7.75015 0.505304 7.46252C0 7.17489 0 6.39549 0 4.83669V3.58565C0 1.99893 0 1.20556 0.512874 0.919493C1.02575 0.633422 1.70078 1.05027 3.05083 1.88396L4.08364 2.52174Z" fill="#FF5E56"/>
<path d="M12.4834 2.52174C13.7397 3.29753 14.3679 3.68543 14.363 4.24889C14.3581 4.81236 13.7233 5.18928 12.4537 5.94312L11.4209 6.55638C10.0806 7.35223 9.41039 7.75015 8.90508 7.46252C8.39978 7.17489 8.39978 6.39549 8.39978 4.83669V3.58565C8.39978 1.99893 8.39978 1.20556 8.91265 0.919492C9.42553 0.633422 10.1006 1.05027 11.4506 1.88396L12.4834 2.52174Z" fill="#FF5E56"/>
<path d="M20.9376 2.55529C22.1725 3.31789 22.79 3.6992 22.79 4.25698C22.79 4.81476 22.1725 5.19606 20.9376 5.95867L19.8505 6.63C18.5004 7.46369 17.8254 7.88053 17.3125 7.59446C16.7996 7.30839 16.7996 6.51503 16.7996 4.92831V3.58565C16.7996 1.99892 16.7996 1.20556 17.3125 0.919492C17.8254 0.633422 18.5004 1.05027 19.8505 1.88396L20.9376 2.55529Z" fill="#FF5E56"/>
</svg>
