<svg width="32" height="32" viewBox="0 0 32 32" fill="none" xmlns="http://www.w3.org/2000/svg">
<path d="M16 32C7.18491 32 0 24.8151 0 16C0 7.18491 7.18491 0 16 0C24.8151 0 32 7.18491 32 16C32 24.8151 24.8151 32 16 32ZM16 1.81132C8.15094 1.81132 1.81132 8.15094 1.81132 16C1.81132 23.8491 8.15094 30.1887 16 30.1887C23.8491 30.1887 30.1887 23.8491 30.1887 16C30.1887 8.15094 23.8491 1.81132 16 1.81132Z" fill="#EEEEEE"/>
<path d="M22.219 19.5621L16.0001 25.781L9.78125 19.5621L11.1096 18.2942L15.0945 22.2791V6.21875H16.9058V22.2791L20.8907 18.2942L22.219 19.5621Z" fill="#EEEEEE"/>
</svg>
