<svg width="3229" height="8227" viewBox="0 0 3229 8227" fill="none" xmlns="http://www.w3.org/2000/svg">
<path d="M2806.8 3624.94C2573.62 3787.32 1961.22 3932.85 1799.22 3699.15C1637.21 3465.44 1986.95 2940.99 2220.13 2778.61C2453.31 2616.24 2773.66 2674.07 2935.67 2907.78C3097.67 3141.48 3039.97 3462.57 2806.8 3624.94Z" fill="url(#paint0_radial)"/>
<path d="M647.341 7425.18C816.207 7486.58 1114.93 7750.47 1053.67 7919.72C992.408 8088.97 594.352 8099.49 425.486 8038.09C256.62 7976.69 169.391 7789.71 230.655 7620.46C291.918 7451.2 478.475 7363.78 647.341 7425.18Z" fill="url(#paint1_radial)"/>
<path d="M2149.24 5773.32C2372.48 6009.44 2362.47 6382.24 2126.89 6605.99C1891.3 6829.74 1265.51 7060.8 1042.27 6824.68C819.032 6588.56 1082.88 5974.67 1318.46 5750.92C1554.05 5527.17 1926 5537.2 2149.24 5773.32Z" fill="url(#paint2_radial)"/>
<path d="M2680.98 311.484C2839.42 584.58 2746.97 934.697 2474.49 1093.49C2202.02 1252.29 1479.23 1377.28 1320.79 1104.18C1162.36 831.086 1628.28 263.317 1900.75 104.523C2173.23 -54.2717 2522.55 38.3881 2680.98 311.484Z" fill="url(#paint3_radial)"/>
<path d="M676.614 247.791C810.28 368.073 972.431 710.139 852.422 844.111C732.414 978.082 375.69 853.226 242.024 732.943C108.358 612.661 97.2863 406.547 217.295 272.576C337.304 138.605 542.948 127.508 676.614 247.791Z" fill="url(#paint4_radial)"/>
<path d="M296.763 4187.47C438.731 4077.16 820.853 3964.92 930.917 4107.21C1040.98 4249.5 837.305 4592.44 695.337 4702.76C553.369 4813.07 349.057 4787.15 238.993 4644.86C128.93 4502.57 154.794 4297.79 296.763 4187.47Z" fill="url(#paint5_radial)"/>
<defs>
<radialGradient id="paint0_radial" cx="0" cy="0" r="1" gradientUnits="userSpaceOnUse" gradientTransform="translate(1982.1 3620.38) rotate(-35.7277) scale(1163.57 1242.05)">
<stop stop-color="#95ADAB"/>
<stop offset="1" stop-color="#B7CBC9"/>
</radialGradient>
<radialGradient id="paint1_radial" cx="0" cy="0" r="1" gradientUnits="userSpaceOnUse" gradientTransform="translate(946.269 7853.81) rotate(-160.895) scale(735.772 786.23)">
<stop stop-color="#95ADAB"/>
<stop offset="1" stop-color="#B7CBC9"/>
</radialGradient>
<radialGradient id="paint2_radial" cx="0" cy="0" r="1" gradientUnits="userSpaceOnUse" gradientTransform="translate(2048.18 5666.44) rotate(118.957) scale(1040.47 1108.49)">
<stop stop-color="#95ADAB"/>
<stop offset="1" stop-color="#B7CBC9"/>
</radialGradient>
<radialGradient id="paint3_radial" cx="0" cy="0" r="1" gradientUnits="userSpaceOnUse" gradientTransform="translate(2363.89 320.459) rotate(109.642) scale(848.011 902.954)">
<stop stop-color="#95ADAB"/>
<stop offset="1" stop-color="#B7CBC9"/>
</radialGradient>
<radialGradient id="paint4_radial" cx="0" cy="0" r="1" gradientUnits="userSpaceOnUse" gradientTransform="translate(616.108 193.343) rotate(114.341) scale(575.962 613.437)">
<stop stop-color="#95ADAB"/>
<stop offset="1" stop-color="#B7CBC9"/>
</radialGradient>
<radialGradient id="paint5_radial" cx="0" cy="0" r="1" gradientUnits="userSpaceOnUse" gradientTransform="translate(817.967 4163.03) rotate(141.276) scale(736.248 785.722)">
<stop stop-color="#95ADAB"/>
<stop offset="1" stop-color="#B7CBC9"/>
</radialGradient>
</defs>
</svg>
