<svg width="187" height="181" viewBox="0 0 187 181" fill="none" xmlns="http://www.w3.org/2000/svg">
<path d="M23.3464 158.74L23.5824 158.823L23.6654 158.587L36.4192 122.336C38.3948 116.78 43.6418 113.016 49.566 113.016H79.3465H79.3932L79.4367 112.999L104.756 103.198L104.817 103.174L104.859 103.124L116.356 89.239L116.358 89.2372C117.215 88.1815 117.613 86.8598 117.481 85.5368C117.348 84.1511 116.687 82.9558 115.624 82.1581C113.573 80.5716 110.662 80.8359 108.941 82.7555L108.94 82.7565L98.1413 94.9283L82.5407 95.5523L82.287 95.5624L82.3011 95.816L82.3639 96.9469L82.3775 97.1924L82.6232 97.1828L98.77 96.5545L98.8763 96.5504L98.947 96.4709L110.13 83.9054L110.133 83.9025C111.237 82.6235 113.222 82.4456 114.564 83.4962L114.569 83.4993C115.257 84.0155 115.669 84.8256 115.789 85.7117C115.846 86.5962 115.609 87.4696 115.029 88.1655L115.028 88.1664L103.761 101.813L79.0484 111.385H49.566C42.9898 111.385 37.0509 115.535 34.8794 121.794L22.1257 158.044L22.0428 158.28L22.2783 158.363L23.3464 158.74Z" fill="#83B5B0" stroke="#83B5B0" stroke-width="0.5"/>
<path d="M1.88268 147.979L2.105 148.104L2.22556 147.879L28.6669 98.5762C33.7326 91.8887 38.3155 88.5845 43.45 87.5576C48.602 86.5272 54.3579 87.778 61.7994 90.3213L61.8 90.3215C65.3956 91.5414 68.0995 90.8296 70.8676 90.0746L70.8693 90.0742C73.9968 89.1985 77.1391 88.3362 82.0911 90.0694C83.2492 90.4747 84.0599 91.5751 84.0599 92.8492C84.0599 94.3523 82.9021 95.6303 81.392 95.805C81.3917 95.805 81.3914 95.805 81.3911 95.8051L67.5078 97.3127L67.4203 97.3223L67.358 97.3845L67.3179 97.4246C67.3153 97.426 67.3125 97.4275 67.3095 97.4291C67.2971 97.4356 67.2813 97.4437 67.2619 97.4535C67.204 97.4827 67.1186 97.5245 67.0072 97.577C66.7848 97.682 66.4614 97.8286 66.0531 98.0016C65.2363 98.3476 64.0814 98.7983 62.7157 99.2314C59.9799 100.099 56.4181 100.89 53.0398 100.642L52.786 100.623L52.7719 100.877L52.7091 102.008L52.6964 102.237L52.9234 102.27C53.3808 102.335 53.898 102.335 54.3319 102.335H54.3409C60.6569 102.335 66.9562 99.4427 67.9827 98.9361L81.5718 97.4958L81.5738 97.4955C83.8951 97.2302 85.6908 95.3048 85.6908 92.912C85.6908 90.9181 84.4274 89.1926 82.5719 88.5299L82.571 88.5296C77.1575 86.6189 73.5148 87.5777 70.3584 88.4615C67.5956 89.215 65.3391 89.8208 62.2148 88.7181L62.2122 88.7172C53.3423 85.6976 47.6332 84.8619 42.5377 86.0082C37.0533 87.2201 32.2953 90.7897 27.1877 97.5998L27.1377 97.6664V97.7498V97.75L0.779505 147.078L0.664206 147.293L0.877435 147.413L1.88268 147.979Z" fill="#83B5B0" stroke="#83B5B0" stroke-width="0.5"/>
<path d="M166.567 179.572L166.657 179.827L166.904 179.717L168.035 179.215L168.246 179.121L168.17 178.903L157.74 149.311L157.739 149.309C155.882 144.185 151.014 140.725 145.567 140.725H121.488L101.361 132.912L92.1672 121.842L92.1673 121.841L92.1617 121.835C91.716 121.334 91.539 120.656 91.5949 119.959C91.7151 119.248 92.0064 118.634 92.558 118.248L92.5582 118.248L92.5681 118.24C93.5913 117.445 95.1389 117.613 95.9969 118.585L95.9976 118.586L105.17 128.89L105.241 128.97L105.348 128.974L118.604 129.476L118.85 129.486L118.864 129.24L118.926 128.109L118.94 127.856L118.687 127.846L106.039 127.347L97.2516 117.501C97.2514 117.501 97.2512 117.5 97.251 117.5C95.7797 115.829 93.3063 115.631 91.5711 116.965L91.5711 116.965L91.5691 116.967C90.6353 117.701 90.1005 118.704 89.9674 119.836C89.8339 120.971 90.1674 122.108 90.9036 122.978C90.9039 122.979 90.9041 122.979 90.9044 122.979L100.327 134.349L100.368 134.399L100.429 134.423L121.026 142.398L121.141 142.455L121.194 142.482H121.253H145.567C150.298 142.482 154.54 145.493 156.138 149.981L166.567 179.572Z" fill="#83B5B0" stroke="#83B5B0" stroke-width="0.5"/>
<path d="M184.229 171.093L184.112 170.874L162.571 130.618C158.448 125.187 154.729 122.512 150.576 121.681C146.406 120.847 141.75 121.862 135.722 123.934C132.754 124.966 130.49 124.38 128.223 123.75C125.725 123.063 123.147 122.389 119.138 123.745C118.226 124.088 117.607 124.94 117.607 125.897C117.607 127.091 118.455 128.048 119.643 128.161L119.645 128.161L119.645 128.161L131.017 129.355L131.105 129.364L131.168 129.427L131.195 129.453C131.207 129.459 131.222 129.466 131.238 129.473C131.255 129.48 131.281 129.492 131.312 129.506C131.355 129.526 131.406 129.549 131.453 129.57C131.636 129.652 131.902 129.77 132.235 129.91C132.903 130.19 133.844 130.558 134.955 130.912C137.18 131.623 140.066 132.272 142.783 132.056L143.038 132.036L143.052 132.291L143.115 133.422L143.13 133.686H142.866C142.689 133.686 142.511 133.701 142.321 133.717L142.316 133.717C142.131 133.732 141.934 133.749 141.735 133.749C136.596 133.749 131.472 131.406 130.547 130.979L119.469 129.789C119.468 129.789 119.468 129.789 119.468 129.789C117.452 129.587 115.976 127.906 115.976 125.897C115.976 124.219 117.05 122.742 118.595 122.205L118.596 122.205L118.596 122.205C123.065 120.672 126.078 121.442 128.668 122.137L128.672 122.138L128.672 122.138C130.868 122.765 132.745 123.244 135.176 122.333L135.181 122.331L135.181 122.331C142.421 119.813 147.124 119.166 151.34 120.124C151.34 120.124 151.34 120.124 151.34 120.124L151.284 120.368C155.745 121.373 159.578 124.263 163.787 129.792L184.229 171.093ZM184.229 171.093L184.449 170.977L185.517 170.411L185.739 170.294L185.621 170.073L164.071 129.737L164.053 129.704L164.027 129.678L163.976 129.627L184.229 171.093Z" fill="#83B5B0" stroke="#83B5B0" stroke-width="0.5"/>
<path d="M117.339 125.015L117.579 125.033L117.606 124.793L117.731 123.662L117.76 123.406L117.503 123.386L111.195 122.891L102.404 112.977C102.403 112.977 102.403 112.977 102.403 112.977C100.932 111.305 98.4583 111.107 96.723 112.442L96.723 112.442L96.721 112.443C95.7872 113.177 95.2524 114.181 95.1193 115.312C94.9857 116.448 95.3196 117.585 96.0563 118.456L96.2189 118.648L96.4099 118.484L97.2895 117.73L97.4827 117.565L97.3136 117.374C96.8679 116.873 96.6909 116.196 96.7468 115.498C96.867 114.788 97.1583 114.173 97.7099 113.787L97.7101 113.787L97.72 113.78C98.7432 112.984 100.291 113.152 101.149 114.125L101.15 114.126L110.322 124.429L110.39 124.505L110.491 124.512L117.339 125.015Z" fill="#83B5B0" stroke="#83B5B0" stroke-width="0.5"/>
<path d="M117.987 123.11L118.151 123.293L118.337 123.133L119.216 122.379L119.409 122.214L119.241 122.024L110.006 111.595C110.006 111.595 110.006 111.595 110.005 111.595C108.534 109.923 106.061 109.725 104.325 111.059L104.325 111.059L104.323 111.061C103.389 111.795 102.855 112.798 102.721 113.93C102.588 115.065 102.922 116.203 103.658 117.074L103.821 117.266L104.012 117.102L104.892 116.348L105.085 116.182L104.916 115.992C104.47 115.491 104.293 114.813 104.349 114.116C104.469 113.405 104.76 112.791 105.312 112.405L105.312 112.405L105.322 112.397C106.345 111.602 107.893 111.77 108.751 112.742L108.752 112.743L117.987 123.11Z" fill="#83B5B0" stroke="#83B5B0" stroke-width="0.5"/>
<path d="M72.938 75.1932H73.188V74.9432V1.99994V1.39639L72.7612 1.82316L46.1222 28.4622L46.1222 28.4622L45.9337 28.6507L45.8605 28.7239V28.8275V46.9219V47.1719H46.1105H47.3042H47.5542V46.9219V29.3708L71.5571 5.36792V74.9432V75.1932H71.8071H72.938Z" fill="#83B5B0" stroke="#83B5B0" stroke-width="0.5"/>
<path d="M32.414 93.0992H32.664V92.8492V53.4548H40.079H40.329V53.2048V47.3605H53.0857V53.2048V53.4548H53.3357H60.7507V88.8911V89.1411H61.0007H62.1944H62.4444V88.8911V52.0111V51.7611H62.1944H54.7166V45.9167V45.6667H54.4666H38.9481H38.6981V45.9167V51.7611H31.2202H30.9702V52.0111V92.8492V93.0992H31.2202H32.414Z" fill="#83B5B0" stroke="#83B5B0" stroke-width="0.5"/>
<path d="M34.2373 61.498V61.748H34.4873H45.0424H45.1052H45.3552V61.498V56.2833V56.0333H45.1052H34.4873H34.2373V56.2833V61.498ZM43.6615 60.1171H35.8682V57.7271H43.6615V60.1171Z" fill="#83B5B0" stroke="#83B5B0" stroke-width="0.5"/>
<path d="M58.8645 61.748H59.1145V61.498V56.2833V56.0333H58.8645H48.2466H47.9966V56.2833V61.498V61.748H48.2466H58.8645ZM57.4208 60.1171H49.6275V57.7271H57.4208V60.1171Z" fill="#83B5B0" stroke="#83B5B0" stroke-width="0.5"/>
<path d="M34.2373 68.6604V68.9104H34.4873H45.0424H45.1052H45.3552V68.6604V63.4457V63.1957H45.1052H34.4873H34.2373V63.4457V68.6604ZM43.6615 67.2795H35.8682V64.8894H43.6615V67.2795Z" fill="#83B5B0" stroke="#83B5B0" stroke-width="0.5"/>
<path d="M58.8645 68.9104H59.1145V68.6604V63.4457V63.1957H58.8645H48.2466H47.9966V63.4457V68.6604V68.9104H48.2466H58.8645ZM57.4208 67.2795H49.6275V64.8894H57.4208V67.2795Z" fill="#83B5B0" stroke="#83B5B0" stroke-width="0.5"/>
<path d="M34.2373 75.8856V76.1356H34.4873H45.0424H45.1052H45.3552V75.8856V70.6709V70.4209H45.1052H34.4873H34.2373V70.6709V75.8856ZM43.6615 74.4419H35.8682V72.0518H43.6615V74.4419Z" fill="#83B5B0" stroke="#83B5B0" stroke-width="0.5"/>
<path d="M58.8645 76.1356H59.1145V75.8856V70.6709V70.4209H58.8645H48.2466H47.9966V70.6709V75.8856V76.1356H48.2466H58.8645ZM57.4208 74.4419H49.6275V72.0518H57.4208V74.4419Z" fill="#83B5B0" stroke="#83B5B0" stroke-width="0.5"/>
<path d="M34.2373 83.048V83.298H34.4873H45.0424H45.1052H45.3552V83.048V77.8333V77.5833H45.1052H34.4873H34.2373V77.8333V83.048ZM43.6615 81.6042H35.8682V79.2142H43.6615V81.6042Z" fill="#83B5B0" stroke="#83B5B0" stroke-width="0.5"/>
<path d="M58.8645 83.298H59.1145V83.048V77.8333V77.5833H58.8645H48.2466H47.9966V77.8333V83.048V83.298H48.2466H58.8645ZM57.4208 81.6042H49.6275V79.2142H57.4208V81.6042Z" fill="#83B5B0" stroke="#83B5B0" stroke-width="0.5"/>
<path d="M54.2153 35.1719H54.4653V34.9219V30.2726V30.0226H54.2153H49.6288H49.3788V30.2726V34.9219V35.1719H49.6288H54.2153ZM52.8344 33.4781H51.0097V31.6535H52.8344V33.4781Z" fill="#83B5B0" stroke="#83B5B0" stroke-width="0.5"/>
<path d="M61.8175 35.1719H62.0675V34.9219V30.2726V30.0226H61.8175H57.231H56.981V30.2726V34.9219V35.1719H57.231H61.8175ZM60.3737 33.4781H58.5491V31.6535H60.3737V33.4781Z" fill="#83B5B0" stroke="#83B5B0" stroke-width="0.5"/>
<path d="M69.3568 35.1719H69.6068V34.9219V30.2726V30.0226H69.3568H64.7704H64.5204V30.2726V34.9219V35.1719H64.7704H69.3568ZM67.9759 33.4781H66.1513V31.6535H67.9759V33.4781Z" fill="#83B5B0" stroke="#83B5B0" stroke-width="0.5"/>
<path d="M54.2153 42.9625H54.4653V42.7125V38.1261V37.8761H54.2153H49.6288H49.3788V38.1261V42.7125V42.9625H49.6288H54.2153ZM52.8344 41.3316H51.0097V39.507H52.8344V41.3316Z" fill="#83B5B0" stroke="#83B5B0" stroke-width="0.5"/>
<path d="M61.8175 42.9625H62.0675V42.7125V38.1261V37.8761H61.8175H57.231H56.981V38.1261V42.7125V42.9625H57.231H61.8175ZM60.3737 41.3316H58.5491V39.507H60.3737V41.3316Z" fill="#83B5B0" stroke="#83B5B0" stroke-width="0.5"/>
<path d="M69.3568 42.9625H69.6068V42.7125V38.1261V37.8761H69.3568H64.7704H64.5204V38.1261V42.7125V42.9625H64.7704H69.3568ZM67.9759 41.3316H66.1513V39.507H67.9759V41.3316Z" fill="#83B5B0" stroke="#83B5B0" stroke-width="0.5"/>
<path d="M61.8175 50.8159H62.0675V50.5659V45.9795V45.7295H61.8175H57.231H56.981V45.9795V50.5659V50.8159H57.231H61.8175ZM60.3737 49.1222H58.5491V47.2976H60.3737V49.1222Z" fill="#83B5B0" stroke="#83B5B0" stroke-width="0.5"/>
<path d="M69.3568 50.8159H69.6068V50.5659V45.9795V45.7295H69.3568H64.7704H64.5204V45.9795V50.5659V50.8159H64.7704H69.3568ZM67.9759 49.1222H66.1513V47.2976H67.9759V49.1222Z" fill="#83B5B0" stroke="#83B5B0" stroke-width="0.5"/>
<path d="M69.3568 58.6066H69.6068V58.3566V53.7701V53.5201H69.3568H64.7704H64.5204V53.7701V58.3566V58.6066H64.7704H69.3568ZM67.9759 56.9757H66.1513V55.151H67.9759V56.9757Z" fill="#83B5B0" stroke="#83B5B0" stroke-width="0.5"/>
<path d="M69.3568 66.4601H69.6068V66.2101V61.6237V61.3737H69.3568H64.7704H64.5204V61.6237V66.2101V66.4601H64.7704H69.3568ZM67.9759 64.7664H66.1513V62.9417H67.9759V64.7664Z" fill="#83B5B0" stroke="#83B5B0" stroke-width="0.5"/>
<path d="M69.3568 74.2509H69.6068V74.0009V69.4144V69.1644H69.3568H64.7704H64.5204V69.4144V74.0009V74.2509H64.7704H69.3568ZM67.9759 72.62H66.1513V70.7953H67.9759V72.62Z" fill="#83B5B0" stroke="#83B5B0" stroke-width="0.5"/>
<path d="M102.027 92.3453H102.277V92.0953V78.1475V78.0297L102.187 77.9547L93.5163 70.7924L93.3616 70.6646L93.2034 70.7879L84.813 77.3275L76.4851 70.7885L76.3273 70.6646L76.1722 70.7918L67.4391 77.9542L67.3476 78.0292V78.1475V89.8335V90.0835H67.5976H68.7285H68.9785V89.8335V78.7686L76.3332 72.7511L84.6572 79.3487L84.8119 79.4713L84.9671 79.3492L93.3534 72.7512L100.646 78.768V92.0953V92.3453H100.896H102.027Z" fill="#83B5B0" stroke="#83B5B0" stroke-width="0.5"/>
<path d="M105.797 88.4499H106.047V88.1999V58.1054V57.8554H105.797H101.775V30.4611V30.3575L101.702 30.2843L94.2878 22.8706L94.111 22.6938L93.9342 22.8706L86.5205 30.2843L86.4473 30.3575V30.4611V57.8554H82.4879H82.2379V58.1054V76.7024V76.9524H82.4879H83.6188H83.8688V76.7024V59.5491H87.8282H88.0782V59.2991V31.0051L94.111 25.0327L100.144 31.0051V59.2991V59.5491H100.394H104.353V88.1999V88.4499H104.603H105.797Z" fill="#83B5B0" stroke="#83B5B0" stroke-width="0.5"/>
<path d="M96.8755 89.5808H97.1255V89.3308V81.9171V81.6671H96.8755H89.4618H89.2118V81.9171V89.3308V89.5808H89.4618H96.8755ZM95.4946 87.8871H90.8427V83.298H95.4946V87.8871Z" fill="#83B5B0" stroke="#83B5B0" stroke-width="0.5"/>
<path d="M80.7287 88.9525H80.9787V88.7025V81.8542V81.6042H80.7287H73.315H73.065V81.8542V88.7025V88.9525H73.315H74.4459H74.6959V88.7025V83.298H79.3478V88.7025V88.9525H79.5978H80.7287Z" fill="#83B5B0" stroke="#83B5B0" stroke-width="0.5"/>
<path d="M94.9265 30.838V30.588H94.6765H93.5456H93.2956V30.838V58.9221V59.1721H93.5456H94.6765H94.9265V58.9221V30.838Z" fill="#83B5B0" stroke="#83B5B0" stroke-width="0.5"/>
<path d="M91.5338 30.838V30.588H91.2838H90.1529H89.9029V30.838V58.9221V59.1721H90.1529H91.2838H91.5338V58.9221V30.838Z" fill="#83B5B0" stroke="#83B5B0" stroke-width="0.5"/>
<path d="M98.3192 30.838V30.588H98.0692H96.9383H96.6883V30.838V58.9221V59.1721H96.9383H98.0692H98.3192V58.9221V30.838Z" fill="#83B5B0" stroke="#83B5B0" stroke-width="0.5"/>
</svg>
