<svg width="125" height="196" viewBox="0 0 125 196" fill="none" xmlns="http://www.w3.org/2000/svg">
<path d="M78.943 128.062V127.812H78.693H77.5853H77.3353V128.062V194.003V194.253H77.5853H78.693H78.943V194.003V128.062Z" fill="#83B5B0" stroke="#83B5B0" stroke-width="0.5"/>
<path d="M78.943 128.062V127.812H78.693H77.5853H77.3353V128.062V186.314V186.564H77.5853H78.693H78.943V186.314V128.062Z" fill="#83B5B0" stroke="#83B5B0" stroke-width="0.5"/>
<path d="M84.8181 128.898H85.3179L85.0181 128.498L46.5772 77.2219L46.5756 77.2196L46.2514 76.7658L46.0922 76.5429L45.8847 76.7218L1.83673 114.71L1.33917 115.139L1.99612 115.149L10.4017 115.28L10.4919 115.281L10.5621 115.225L45.0956 87.4941L77.6496 128.803L77.7247 128.898H77.846H84.8181ZM45.4624 85.4226L45.3063 85.2247L45.1096 85.3824L9.92817 113.606L5.59467 113.55L45.813 78.8393L82.103 127.29H78.4884L45.4624 85.4226Z" fill="#83B5B0" stroke="#83B5B0" stroke-width="0.5"/>
<path d="M78.166 194.895L78.2914 194.932L78.3935 194.85L119.118 162.14L119.212 162.065V161.945V104.213V103.963H118.962H117.919H117.669V104.213V161.303L77.9219 193.14L14.4349 174.399V111.707V111.457H14.1849H13.0771H12.8271V111.707V175.368V175.554L13.0062 175.607L78.166 194.895Z" fill="#83B5B0" stroke="#83B5B0" stroke-width="0.5"/>
<path d="M84.354 128.793L84.4984 128.995L84.7014 128.852L124.188 101.029L124.401 100.879L124.243 100.673L86.1243 50.8907L85.9719 50.6918L85.7734 50.8446L84.9263 51.4962L84.7287 51.6481L84.8801 51.8461L122.124 100.574L83.7621 127.531L83.556 127.676L83.7024 127.881L84.354 128.793Z" fill="#83B5B0" stroke="#83B5B0" stroke-width="0.5"/>
<path d="M90.4963 95.8439L90.6436 96.0083L90.825 95.8824L96.3636 92.038L96.5931 91.8787L96.4094 91.6682L86.1141 79.8743L85.9451 79.6807L85.7562 79.855L84.9092 80.6369L84.7298 80.8025L84.891 80.9857L94.2201 91.5928L90.9162 93.9113L65.0727 65.0237L64.6882 64.511L64.5468 64.3224L64.3502 64.4526L45.6494 76.8329L45.4334 76.9759L45.584 77.1867L46.2355 78.0989L46.3759 78.2954L46.5771 78.162L64.1856 66.4875L90.4963 95.8439Z" fill="#83B5B0" stroke="#83B5B0" stroke-width="0.5"/>
<path d="M27.2055 126.973L26.9658 126.902L26.8949 127.142L26.5811 128.204L26.5103 128.444L26.75 128.515L32.9364 130.342L33.1761 130.413L33.2469 130.173L33.5608 129.111L33.6316 128.871L33.3918 128.8L27.2055 126.973Z" fill="#83B5B0" stroke="#83B5B0" stroke-width="0.5"/>
<path d="M33.5956 143.418L33.6308 143.429H33.6676H33.7328H33.9828V143.179V122.197V122.011L33.8045 121.958L20.3165 117.918L19.9947 117.821V118.157V139.139V139.325L20.1727 139.378L33.5956 143.418ZM21.5373 119.992L32.3099 123.23V141.344L21.5373 138.106V119.992Z" fill="#83B5B0" stroke="#83B5B0" stroke-width="0.5"/>
<path d="M27.7926 120.764V120.514H27.5426H26.4349H26.1849V120.764V140.572V140.822H26.4349H27.5426H27.7926V140.572V120.764Z" fill="#83B5B0" stroke="#83B5B0" stroke-width="0.5"/>
<path d="M45.4583 132.196L45.2186 132.125L45.1478 132.365L44.8339 133.427L44.7631 133.667L45.0029 133.738L51.1892 135.565L51.429 135.636L51.4998 135.397L51.8136 134.334L51.8844 134.094L51.6447 134.024L45.4583 132.196Z" fill="#83B5B0" stroke="#83B5B0" stroke-width="0.5"/>
<path d="M51.9058 148.631L52.2275 148.727V148.391V127.41V127.224L52.0493 127.171L38.5612 123.131L38.2395 123.034V123.37V144.352V144.538L38.4177 144.591L51.9058 148.631ZM39.8472 125.205L50.6198 128.443V146.557L39.8472 143.319V125.205Z" fill="#83B5B0" stroke="#83B5B0" stroke-width="0.5"/>
<path d="M46.0374 125.977V125.727H45.7874H44.6797H44.4297V125.977V145.785V146.035H44.6797H45.7874H46.0374V145.785V125.977Z" fill="#83B5B0" stroke="#83B5B0" stroke-width="0.5"/>
<path d="M63.6966 137.643L63.4569 137.572L63.386 137.812L63.0721 138.874L63.0013 139.114L63.241 139.185L69.4273 141.013L69.6671 141.084L69.7379 140.844L70.0519 139.782L70.1227 139.542L69.883 139.471L63.6966 137.643Z" fill="#83B5B0" stroke="#83B5B0" stroke-width="0.5"/>
<path d="M70.1505 154.039L70.4722 154.136V153.8V132.818V132.632L70.294 132.579L56.8059 128.539L56.4842 128.443V128.778V149.76V149.946L56.6624 149.999L70.1505 154.039ZM58.0919 130.613L68.8645 133.851V151.965L58.0919 148.727V130.613Z" fill="#83B5B0" stroke="#83B5B0" stroke-width="0.5"/>
<path d="M64.2821 131.385V131.135H64.0321H62.9244H62.6744V131.385V151.193V151.443H62.9244H64.0321H64.2821V151.193V131.385Z" fill="#83B5B0" stroke="#83B5B0" stroke-width="0.5"/>
<path d="M90.0432 134.803L89.8911 134.605L89.6927 134.757L84.3148 138.88L84.1164 139.032L84.2685 139.23L84.9424 140.109L85.0945 140.308L85.2929 140.155L90.6708 136.033L90.8692 135.88L90.7171 135.682L90.0432 134.803Z" fill="#83B5B0" stroke="#83B5B0" stroke-width="0.5"/>
<path d="M83.9816 151.78V152.288L84.3841 151.978L96.2431 142.856L96.3407 142.781V142.657V124.087V123.579L95.9383 123.889L84.0792 133.011L83.9816 133.086V133.209V151.78ZM94.733 126.81V142.013L85.5893 149.056V133.854L94.733 126.81Z" fill="#83B5B0" stroke="#83B5B0" stroke-width="0.5"/>
<path d="M90.9325 129.3V129.05H90.6825H89.5748H89.3248V129.3V146.502V146.752H89.5748H90.6825H90.9325V146.502V129.3Z" fill="#83B5B0" stroke="#83B5B0" stroke-width="0.5"/>
<path d="M107.428 122.495L107.276 122.296L107.078 122.448L101.7 126.571L101.502 126.723L101.654 126.922L102.328 127.801L102.48 127.999L102.678 127.847L108.056 123.724L108.254 123.572L108.102 123.374L107.428 122.495Z" fill="#83B5B0" stroke="#83B5B0" stroke-width="0.5"/>
<path d="M101.379 139.53V140.039L101.782 139.727L113.641 130.54L113.738 130.465V130.342V111.771V111.264L113.336 111.573L101.477 120.696L101.379 120.771V120.894V139.53ZM112.131 114.56V129.763L102.987 136.806V121.603L112.131 114.56Z" fill="#83B5B0" stroke="#83B5B0" stroke-width="0.5"/>
<path d="M108.395 117.049V116.799H108.145H107.038H106.788V117.049V134.252V134.502H107.038H108.145H108.395V134.252V117.049Z" fill="#83B5B0" stroke="#83B5B0" stroke-width="0.5"/>
<path d="M90.0487 162.689L89.8966 162.49L89.6982 162.642L84.3203 166.765L84.1219 166.917L84.274 167.116L84.9479 167.995L85.1 168.193L85.2984 168.041L90.6763 163.918L90.8747 163.766L90.7226 163.568L90.0487 162.689Z" fill="#83B5B0" stroke="#83B5B0" stroke-width="0.5"/>
<path d="M83.9816 179.668V180.176L84.3841 179.866L96.2431 170.744L96.3407 170.669V170.546V151.975V151.467L95.9383 151.777L84.0792 160.899L83.9816 160.974V161.097V179.668ZM94.733 154.699V169.901L85.5893 176.944V161.742L94.733 154.699Z" fill="#83B5B0" stroke="#83B5B0" stroke-width="0.5"/>
<path d="M90.9325 157.188V156.938H90.6825H89.5748H89.3248V157.188V174.39V174.64H89.5748H90.6825H90.9325V174.39V157.188Z" fill="#83B5B0" stroke="#83B5B0" stroke-width="0.5"/>
<path d="M107.434 150.38L107.282 150.182L107.083 150.334L101.705 154.457L101.507 154.609L101.659 154.807L102.333 155.686L102.485 155.885L102.684 155.733L108.062 151.61L108.26 151.458L108.108 151.259L107.434 150.38Z" fill="#83B5B0" stroke="#83B5B0" stroke-width="0.5"/>
<path d="M101.379 167.353V167.861L101.782 167.551L113.641 158.429L113.738 158.354V158.231V139.66V139.152L113.336 139.462L101.477 148.584L101.379 148.659V148.782V167.353ZM112.131 142.384V157.586L102.987 164.629V149.427L112.131 142.384Z" fill="#83B5B0" stroke="#83B5B0" stroke-width="0.5"/>
<path d="M108.395 144.938V144.688H108.145H107.038H106.788V144.938V162.14V162.39H107.038H108.145H108.395V162.14V144.938Z" fill="#83B5B0" stroke="#83B5B0" stroke-width="0.5"/>
<path d="M27.1855 157.106L26.9458 157.035L26.8749 157.275L26.561 158.337L26.4902 158.577L26.7299 158.647L32.9162 160.476L33.156 160.546L33.2268 160.307L33.5408 159.244L33.6116 159.005L33.3719 158.934L27.1855 157.106Z" fill="#83B5B0" stroke="#83B5B0" stroke-width="0.5"/>
<path d="M33.5956 173.522L33.6308 173.532H33.6676H33.7328H33.9828V173.282V152.301V152.115L33.8045 152.061L20.3165 148.021L19.9947 147.925V148.261V169.242V169.428L20.1727 169.482L33.5956 173.522ZM21.5373 150.096L32.3099 153.334V171.447L21.5373 168.209V150.096Z" fill="#83B5B0" stroke="#83B5B0" stroke-width="0.5"/>
<path d="M27.7926 150.867V150.617H27.5426H26.4349H26.1849V150.867V170.676V170.926H26.4349H27.5426H27.7926V170.676V150.867Z" fill="#83B5B0" stroke="#83B5B0" stroke-width="0.5"/>
<path d="M45.4352 162.315L45.1955 162.244L45.1246 162.484L44.8108 163.546L44.74 163.786L44.9797 163.857L51.1661 165.685L51.4058 165.755L51.4767 165.516L51.7905 164.453L51.8613 164.214L51.6215 164.143L45.4352 162.315Z" fill="#83B5B0" stroke="#83B5B0" stroke-width="0.5"/>
<path d="M51.9058 178.735L52.2275 178.831V178.495V157.514V157.328L52.0493 157.274L38.5612 153.234L38.2395 153.138V153.474V174.455V174.641L38.4177 174.695L51.9058 178.735ZM39.8472 155.309L50.6198 158.547V176.66L39.8472 173.422V155.309Z" fill="#83B5B0" stroke="#83B5B0" stroke-width="0.5"/>
<path d="M46.0374 156.08V155.83H45.7874H44.6797H44.4297V156.08V175.889V176.139H44.6797H45.7874H46.0374V175.889V156.08Z" fill="#83B5B0" stroke="#83B5B0" stroke-width="0.5"/>
<path d="M63.6736 167.765L63.4338 167.694L63.363 167.934L63.049 168.996L62.9782 169.236L63.2179 169.307L69.4043 171.135L69.644 171.206L69.7149 170.966L70.0288 169.904L70.0996 169.664L69.8599 169.593L63.6736 167.765Z" fill="#83B5B0" stroke="#83B5B0" stroke-width="0.5"/>
<path d="M70.1505 184.143L70.4722 184.239V183.903V162.922V162.736L70.294 162.682L56.8059 158.642L56.4842 158.546V158.882V179.863V180.049L56.6624 180.103L70.1505 184.143ZM58.0919 160.782L68.8645 164.02V182.134L58.0919 178.896V160.782Z" fill="#83B5B0" stroke="#83B5B0" stroke-width="0.5"/>
<path d="M64.2821 161.489V161.239H64.0321H62.9244H62.6744V161.489V181.297V181.547H62.9244H64.0321H64.2821V181.297V161.489Z" fill="#83B5B0" stroke="#83B5B0" stroke-width="0.5"/>
<path d="M39.673 110.077C39.673 113.148 42.1307 115.605 45.2009 115.605C48.2732 115.605 50.7289 113.081 50.7289 110.077C50.7289 107.007 48.2712 104.55 45.2009 104.55C42.1307 104.55 39.673 107.007 39.673 110.077ZM41.2807 110.012C41.2807 107.87 43.0584 106.092 45.2009 106.092C47.4061 106.092 49.1211 107.867 49.1211 110.012C49.1211 112.155 47.3434 113.933 45.2009 113.933C43.0584 113.933 41.2807 112.155 41.2807 110.012Z" fill="#83B5B0" stroke="#83B5B0" stroke-width="0.5"/>
<path d="M39.673 110.077C39.673 113.148 42.1307 115.605 45.2009 115.605C48.2732 115.605 50.7289 113.081 50.7289 110.077C50.7289 107.007 48.2712 104.55 45.2009 104.55C42.1307 104.55 39.673 107.007 39.673 110.077ZM41.2807 110.012C41.2807 107.87 43.0584 106.092 45.2009 106.092C47.4061 106.092 49.1211 107.867 49.1211 110.012C49.1211 112.155 47.3434 113.933 45.2009 113.933C43.0584 113.933 41.2807 112.155 41.2807 110.012Z" fill="#83B5B0" stroke="#83B5B0" stroke-width="0.5"/>
<path d="M54.9642 34.1012V33.8512H54.7142H50.544H50.294V34.1012V35.2089V35.4589H50.544H54.7142H54.9642V35.2089V34.1012Z" fill="#83B5B0" stroke="#83B5B0" stroke-width="0.5"/>
<path d="M36.665 86.0229H36.915V85.7729V35.4589H46.1132H46.3632V35.2089V34.1012V33.8512H46.1132H35.5573H35.3073V34.1012V85.7729V86.0229H35.5573H36.665Z" fill="#83B5B0" stroke="#83B5B0" stroke-width="0.5"/>
<path d="M85.7303 88.9551H85.9803V88.7051V34.1012V33.8512H85.7303H68.7236H68.4736V34.1012V35.2089V35.4589H68.7236H84.3726V88.7051V88.9551H84.6226H85.7303Z" fill="#83B5B0" stroke="#83B5B0" stroke-width="0.5"/>
<path d="M56.984 44.0597L56.984 44.06H56.9948H56.9949H56.9949H56.9949H56.995H56.995H56.9951H56.9951H56.9952H56.9952H56.9952H56.9952H56.9953H56.9953H56.9954H56.9954H56.9954H56.9955H56.9955H56.9956H56.9956H56.9957H56.9957H56.9958H56.9958H56.9959H56.9959H56.996H56.996H56.9961H56.9962H56.9962H56.9963H56.9964H56.9964H56.9965H56.9966H56.9966H56.9967H56.9968H56.9968H56.9969H56.997H56.9971H56.9972H56.9972H56.9973H56.9974H56.9975H56.9976H56.9977H56.9978H56.9978H56.9979H56.998H56.9981H56.9982H56.9983H56.9984H56.9985H56.9986H56.9987H56.9988H56.9989H56.999H56.9991H56.9992H56.9994H56.9995H56.9996H56.9997H56.9998H56.9999H57H57.0002H57.0003H57.0004H57.0005H57.0006H57.0008H57.0009H57.001H57.0011H57.0013H57.0014H57.0015H57.0017H57.0018H57.0019H57.0021H57.0022H57.0023H57.0025H57.0026H57.0028H57.0029H57.0031H57.0032H57.0034H57.0035H57.0036H57.0038H57.0039H57.0041H57.0043H57.0044H57.0046H57.0047H57.0049H57.005H57.0052H57.0054H57.0055H57.0057H57.0059H57.006H57.0062H57.0064H57.0065H57.0067H57.0069H57.007H57.0072H57.0074H57.0076H57.0078H57.0079H57.0081H57.0083H57.0085H57.0087H57.0088H57.009H57.0092H57.0094H57.0096H57.0098H57.01H57.0102H57.0103H57.0105H57.0107H57.0109H57.0111H57.0113H57.0115H57.0117H57.0119H57.0121H57.0123H57.0125H57.0127H57.0129H57.0132H57.0134H57.0136H57.0138H57.014H57.0142H57.0144H57.0146H57.0148H57.0151H57.0153H57.0155H57.0157H57.0159H57.0162H57.0164H57.0166H57.0168H57.017H57.0173H57.0175H57.0177H57.018H57.0182H57.0184H57.0186H57.0189H57.0191H57.0193H57.0196H57.0198H57.0201H57.0203H57.0205H57.0208H57.021H57.0213H57.0215H57.0217H57.022H57.0222H57.0225H57.0227H57.023H57.0232H57.0235H57.0237H57.024H57.0242H57.0245H57.0247H57.025H57.0252H57.0255H57.0257H57.026H57.0263H57.0265H57.0268H57.027H57.0273H57.0276H57.0278H57.0281H57.0284H57.0286H57.0289H57.0292H57.0294H57.0297H57.03H57.0302H57.0305H57.0308H57.0311H57.0313H57.0316H57.0319H57.0322H57.0324H57.0327H57.033H57.0333H57.0336H57.0338H57.0341H57.0344H57.0347H57.035H57.0353H57.0356H57.0358H57.0361H57.0364H57.0367H57.037H57.0373H57.0376H57.0379H57.0382H57.0385H57.0387H57.039H57.0393H57.0396H57.0399H57.0402H57.0405H57.0408H57.0411H57.0414H57.0417H57.042H57.0423H57.0426H57.0429H57.0432H57.0435H57.0438H57.0442H57.0445H57.0448H57.0451H57.0454H57.0457H57.046H57.0463H57.0466H57.0469H57.0473H57.0476H57.0479H57.0482H57.0485H57.0488H57.0491H57.0495H57.0498H57.0501H57.0504H57.0507H57.0511H57.0514H57.0517H57.052H57.0523H57.0527H57.053H57.0533H57.0536H57.054H57.0543H57.0546H57.0549H57.0553H57.0556H57.0559H57.0563H57.0566H57.0569H57.0573H57.0576H57.0579H57.0583H57.0586H57.0589H57.0593H57.0596H57.0599H57.0603H57.0606H57.0609H57.0613H57.0616H57.0619H57.0623H57.0626H57.063H57.0633H57.0636H57.064H57.0643H57.0647H57.065H57.0654H57.0657H57.066H57.0664H57.0667H57.0671H57.0674H57.0678H57.0681H57.0685H57.0688H57.0692H57.0695H57.0699H57.0702H57.0706H57.0709H57.0713H57.0716H57.072H57.0723H57.0727H57.073H57.0734H57.0737H57.0741H57.0744H57.0748H57.0752H57.0755H57.0759H57.0762H57.0766H57.0769H57.0773H57.0777H57.078H57.0784H57.0787H57.0791H57.0794H57.0798H57.0802H57.0805H57.0809H57.0813H57.0816H57.082H57.0823H57.0827H57.0831H57.0834H57.0838H57.0842H57.0845H57.0849H57.0853H57.0856H57.086H57.0863H57.0867H57.0871H57.0875H57.0878H57.0882H57.0886H57.0889H57.0893H57.0897H57.09H57.0904H57.0908H57.0911H57.0915H57.0919H57.0922H57.0926H57.093H57.0934H57.0937H57.0941H57.0945H57.0948H57.0952H57.0956H57.096H57.0963H57.0967H57.0971H57.0975H57.0978H57.0982H57.0986H57.099H57.0993H57.0997H57.1001H57.1005H57.1008H57.1012H57.1016H57.102H57.1023H57.1027H57.1031H57.1035H57.1038H57.1042H57.1046H57.105H57.1054H57.1057H57.1061H57.1065H57.1069H57.1073H57.1076H57.108H57.1084H57.1088H57.1091H57.1095H57.1099H57.1103H57.1107H57.111H57.1114H57.1118H57.1122H57.1126H57.1129H57.1133H57.1137H57.1141H57.1145H57.1148H57.1152H57.1156H57.116H57.1164H57.1167H57.1171H57.1175H57.1179H57.1183H57.1187H57.119H57.1194H57.1198H57.1202H57.1206H57.1209H57.1213H57.1217H57.1221H57.1225H57.1229H57.1232H57.1236H57.124H57.1244H57.1248H57.1251C58.6933 44.06 60.0345 42.7831 60.176 41.2262L60.1761 41.2262L60.1765 41.2192L60.3068 39.1341L60.3074 39.1253L60.3073 39.1165L60.2427 30.9151L64.3082 24.5266L64.4418 24.3166L64.2324 24.1821L63.3202 23.5956L63.1129 23.4624L62.9767 23.6677L58.611 30.2488L58.5687 30.3125L58.5693 30.389L58.6344 38.9159L58.5047 40.9263C58.5047 40.9264 58.5047 40.9265 58.5047 40.9267C58.4484 41.7676 57.7195 42.3777 56.9475 42.3226L56.9386 42.3219H56.9297C56.1681 42.3219 55.5507 41.6648 55.5507 40.8778L55.5507 40.875L55.4211 29.0887L59.7485 22.1132L59.7485 22.1132L59.7504 22.1101C60.0091 21.6789 59.9184 21.1631 59.5825 20.8273C59.2195 20.4642 58.6954 20.4871 58.2997 20.7245L58.2995 20.7242L58.2888 20.7315L51.3167 25.423L51.2289 25.482L51.2102 25.5861L49.5812 34.6433L49.5811 34.6433L49.5802 34.6496C49.4717 35.3547 48.8839 35.7942 48.1603 35.7421C47.7568 35.6828 47.432 35.5124 47.2206 35.2482C46.9991 34.9712 46.8925 34.6485 46.9471 34.2668L46.9471 34.2668L46.9476 34.2627L48.237 24.0118L60.4865 15.3727L118.886 2.28651L119.136 2.23048L119.074 1.98192L118.813 0.939365L118.754 0.702208L118.516 0.756166L60.0946 13.9774H59.9922H59.913L59.8483 14.023L46.8815 23.1453L46.7919 23.2084L46.7775 23.317L45.344 34.1335L45.3438 34.1334L45.3429 34.1437C45.2722 34.9211 45.4844 35.7013 45.981 36.3398C46.483 36.9853 47.2002 37.3417 47.9801 37.4126L47.9801 37.4129L47.9909 37.4134C49.4763 37.4841 50.8301 36.4927 51.1154 34.995L52.7249 26.5614L57.0737 23.6272L53.9157 28.6909L53.8766 28.7535L53.8778 28.8272L54.0733 41.0081C54.0733 41.0088 54.0733 41.0094 54.0733 41.0101C54.0743 42.6403 55.3508 43.9887 56.984 44.0597Z" fill="#83B5B0" stroke="#83B5B0" stroke-width="0.5"/>
<path d="M61.5452 43.7992L61.5452 43.7994H61.556H61.5561H61.5561H61.5561H61.5561H61.5561H61.5562H61.5562H61.5562H61.5562H61.5563H61.5563H61.5563H61.5563H61.5564H61.5564H61.5564H61.5565H61.5565H61.5565H61.5566H61.5566H61.5567H61.5567H61.5567H61.5568H61.5568H61.5569H61.5569H61.557H61.557H61.5571H61.5571H61.5572H61.5573H61.5573H61.5574H61.5574H61.5575H61.5576H61.5576H61.5577H61.5578H61.5578H61.5579H61.558H61.5581H61.5581H61.5582H61.5583H61.5584H61.5585H61.5585H61.5586H61.5587H61.5588H61.5589H61.559H61.5591H61.5591H61.5592H61.5593H61.5594H61.5595H61.5596H61.5597H61.5598H61.5599H61.56H61.5601H61.5602H61.5603H61.5605H61.5606H61.5607H61.5608H61.5609H61.561H61.5611H61.5612H61.5614H61.5615H61.5616H61.5617H61.5618H61.562H61.5621H61.5622H61.5624H61.5625H61.5626H61.5627H61.5629H61.563H61.5631H61.5633H61.5634H61.5636H61.5637H61.5638H61.564H61.5641H61.5643H61.5644H61.5646H61.5647H61.5649H61.565H61.5652H61.5653H61.5655H61.5656H61.5658H61.5659H61.5661H61.5663H61.5664H61.5666H61.5667H61.5669H61.5671H61.5672H61.5674H61.5676H61.5677H61.5679H61.5681H61.5683H61.5684H61.5686H61.5688H61.569H61.5691H61.5693H61.5695H61.5697H61.5699H61.5701H61.5702H61.5704H61.5706H61.5708H61.571H61.5712H61.5714H61.5716H61.5718H61.572H61.5721H61.5723H61.5725H61.5727H61.5729H61.5731H61.5733H61.5735H61.5737H61.574H61.5742H61.5744H61.5746H61.5748H61.575H61.5752H61.5754H61.5756H61.5758H61.5761H61.5763H61.5765H61.5767H61.5769H61.5771H61.5774H61.5776H61.5778H61.578H61.5783H61.5785H61.5787H61.5789H61.5792H61.5794H61.5796H61.5799H61.5801H61.5803H61.5806H61.5808H61.581H61.5813H61.5815H61.5817H61.582H61.5822H61.5825H61.5827H61.583H61.5832H61.5834H61.5837H61.5839H61.5842H61.5844H61.5847H61.5849H61.5852H61.5854H61.5857H61.5859H61.5862H61.5864H61.5867H61.587H61.5872H61.5875H61.5877H61.588H61.5883H61.5885H61.5888H61.589H61.5893H61.5896H61.5898H61.5901H61.5904H61.5907H61.5909H61.5912H61.5915H61.5917H61.592H61.5923H61.5926H61.5928H61.5931H61.5934H61.5937H61.5939H61.5942H61.5945H61.5948H61.5951H61.5953H61.5956H61.5959H61.5962H61.5965H61.5968H61.5971H61.5973H61.5976H61.5979H61.5982H61.5985H61.5988H61.5991H61.5994H61.5997H61.6H61.6003H61.6005H61.6008H61.6011H61.6014H61.6017H61.602H61.6023H61.6026H61.6029H61.6032H61.6035H61.6038H61.6041H61.6045H61.6048H61.6051H61.6054H61.6057H61.606H61.6063H61.6066H61.6069H61.6072H61.6075H61.6078H61.6082H61.6085H61.6088H61.6091H61.6094H61.6097H61.61H61.6104H61.6107H61.611H61.6113H61.6116H61.612H61.6123H61.6126H61.6129H61.6132H61.6136H61.6139H61.6142H61.6145H61.6149H61.6152H61.6155H61.6158H61.6162H61.6165H61.6168H61.6171H61.6175H61.6178H61.6181H61.6185H61.6188H61.6191H61.6195H61.6198H61.6201H61.6205H61.6208H61.6211H61.6215H61.6218H61.6221H61.6225H61.6228H61.6232H61.6235H61.6238H61.6242H61.6245H61.6249H61.6252H61.6255H61.6259H61.6262H61.6266H61.6269H61.6273H61.6276H61.6279H61.6283H61.6286H61.629H61.6293H61.6297H61.63H61.6304H61.6307H61.6311H61.6314H61.6318H61.6321H61.6325H61.6328H61.6332H61.6335H61.6339H61.6342H61.6346H61.6349H61.6353H61.6357H61.636H61.6364H61.6367H61.6371H61.6374H61.6378H61.6381H61.6385H61.6389H61.6392H61.6396H61.6399H61.6403H61.6407H61.641H61.6414H61.6417H61.6421H61.6425H61.6428H61.6432H61.6436H61.6439H61.6443H61.6446H61.645H61.6454H61.6457H61.6461H61.6465H61.6468H61.6472H61.6476H61.6479H61.6483H61.6487H61.649H61.6494H61.6498H61.6501H61.6505H61.6509H61.6512H61.6516H61.652H61.6524H61.6527H61.6531H61.6535H61.6538H61.6542H61.6546H61.6549H61.6553H61.6557H61.6561H61.6564H61.6568H61.6572H61.6576H61.6579H61.6583H61.6587H61.659H61.6594H61.6598H61.6602H61.6605H61.6609H61.6613H61.6617H61.6621H61.6624H61.6628H61.6632H61.6636H61.6639H61.6643H61.6647H61.6651H61.6654H61.6658H61.6662H61.6666H61.667H61.6673H61.6677H61.6681H61.6685H61.6688H61.6692H61.6696H61.67H61.6704H61.6707H61.6711H61.6715H61.6719H61.6723H61.6726H61.673H61.6734H61.6738H61.6742H61.6745H61.6749H61.6753H61.6757H61.6761H61.6764H61.6768H61.6772H61.6776H61.678H61.6783H61.6787H61.6791H61.6795H61.6799H61.6803H61.6806H61.681H61.6814H61.6818H61.6822H61.6825H61.6829H61.6833H61.6837H61.6841H61.6844H61.6848H61.6852H61.6856H61.686H61.6864C63.3195 43.7994 64.6613 42.5226 64.8024 40.8995L64.8028 40.8995L64.8033 40.8857L64.8684 38.8006L64.8686 38.8006L64.8685 38.7901L64.8042 32.7398L68.1521 27.5248L68.287 27.3146L68.0769 27.1795L67.1647 26.5931L66.9521 26.4564L66.8177 26.6704L63.2991 32.2741L63.2601 32.3363L63.2608 32.4096L63.3259 38.786L63.1962 40.7961C63.1962 40.7961 63.1962 40.7962 63.1962 40.7962C63.1397 41.6424 62.4709 42.2478 61.6378 42.1922L61.6295 42.1917H61.6212C60.8596 42.1917 60.2422 41.5346 60.2422 40.7475V40.4975H59.9922H58.8845H58.6345V40.7475C58.6345 42.3786 59.9114 43.7281 61.5452 43.7992Z" fill="#83B5B0" stroke="#83B5B0" stroke-width="0.5"/>
<path d="M69.0999 41.6488L69.3562 41.6639L69.3645 41.4073L69.4296 39.3873L69.4298 39.3873V39.3793V34.1084L71.1976 31.3042C75.2071 31.7149 79.3214 30.2432 83.1553 26.9941L83.1553 26.9942L83.1572 26.9925C85.4857 24.9787 87.0901 22.8458 87.6833 22.0343L118.575 21.58L118.821 21.5764V21.33V20.2223V19.9686L118.567 19.9723L87.0299 20.4284L86.8779 20.4306L86.8099 20.5666L86.6894 20.8077L86.6731 20.8307L86.6097 20.9213C86.5554 20.9985 86.4764 21.1096 86.3738 21.2496C86.1684 21.5297 85.868 21.9254 85.4806 22.3946C84.7053 23.3334 83.5835 24.5639 82.1807 25.7491C79.3704 28.1233 75.4691 30.2854 70.982 29.6196L70.6623 29.5556L70.494 29.522L70.4021 29.667L67.926 33.5766L67.8872 33.6379V33.7104V39.306L67.7574 41.318L67.7412 41.5689L67.9922 41.5836L69.0999 41.6488Z" fill="#83B5B0" stroke="#83B5B0" stroke-width="0.5"/>
<path d="M66.1715 44.2552L66.1715 44.2555H66.1824H66.1824H66.1824H66.1824H66.1824H66.1824H66.1824H66.1824H66.1824H66.1825H66.1825H66.1825H66.1825H66.1825H66.1825H66.1826H66.1826H66.1826H66.1826H66.1827H66.1827H66.1827H66.1828H66.1828H66.1828H66.1829H66.1829H66.183H66.183H66.183H66.1831H66.1831H66.1832H66.1832H66.1833H66.1833H66.1834H66.1834H66.1835H66.1835H66.1836H66.1837H66.1837H66.1838H66.1838H66.1839H66.184H66.184H66.1841H66.1842H66.1843H66.1843H66.1844H66.1845H66.1846H66.1846H66.1847H66.1848H66.1849H66.185H66.185H66.1851H66.1852H66.1853H66.1854H66.1855H66.1856H66.1857H66.1858H66.1859H66.186H66.1861H66.1862H66.1863H66.1864H66.1865H66.1866H66.1867H66.1868H66.1869H66.187H66.1871H66.1872H66.1874H66.1875H66.1876H66.1877H66.1878H66.1879H66.1881H66.1882H66.1883H66.1884H66.1886H66.1887H66.1888H66.189H66.1891H66.1892H66.1894H66.1895H66.1896H66.1898H66.1899H66.19H66.1902H66.1903H66.1905H66.1906H66.1908H66.1909H66.1911H66.1912H66.1914H66.1915H66.1917H66.1918H66.192H66.1921H66.1923H66.1924H66.1926H66.1928H66.1929H66.1931H66.1933H66.1934H66.1936H66.1937H66.1939H66.1941H66.1943H66.1944H66.1946H66.1948H66.195H66.1951H66.1953H66.1955H66.1957H66.1958H66.196H66.1962H66.1964H66.1966H66.1968H66.197H66.1971H66.1973H66.1975H66.1977H66.1979H66.1981H66.1983H66.1985H66.1987H66.1989H66.1991H66.1993H66.1995H66.1997H66.1999H66.2001H66.2003H66.2005H66.2007H66.2009H66.2011H66.2013H66.2015H66.2018H66.202H66.2022H66.2024H66.2026H66.2028H66.2031H66.2033H66.2035H66.2037H66.2039H66.2042H66.2044H66.2046H66.2048H66.2051H66.2053H66.2055H66.2057H66.206H66.2062H66.2064H66.2067H66.2069H66.2071H66.2074H66.2076H66.2078H66.2081H66.2083H66.2086H66.2088H66.2091H66.2093H66.2095H66.2098H66.21H66.2103H66.2105H66.2108H66.211H66.2113H66.2115H66.2118H66.212H66.2123H66.2125H66.2128H66.213H66.2133H66.2136H66.2138H66.2141H66.2143H66.2146H66.2149H66.2151H66.2154H66.2157H66.2159H66.2162H66.2165H66.2167H66.217H66.2173H66.2175H66.2178H66.2181H66.2183H66.2186H66.2189H66.2192H66.2194H66.2197H66.22H66.2203H66.2206H66.2208H66.2211H66.2214H66.2217H66.222H66.2223H66.2225H66.2228H66.2231H66.2234H66.2237H66.224H66.2243H66.2245H66.2248H66.2251H66.2254H66.2257H66.226H66.2263H66.2266H66.2269H66.2272H66.2275H66.2278H66.2281H66.2284H66.2287H66.229H66.2293H66.2296H66.2299H66.2302H66.2305H66.2308H66.2311H66.2314H66.2317H66.232H66.2323H66.2326H66.2329H66.2333H66.2336H66.2339H66.2342H66.2345H66.2348H66.2351H66.2354H66.2358H66.2361H66.2364H66.2367H66.237H66.2373H66.2377H66.238H66.2383H66.2386H66.2389H66.2393H66.2396H66.2399H66.2402H66.2405H66.2409H66.2412H66.2415H66.2419H66.2422H66.2425H66.2428H66.2432H66.2435H66.2438H66.2441H66.2445H66.2448H66.2451H66.2455H66.2458H66.2461H66.2465H66.2468H66.2471H66.2475H66.2478H66.2482H66.2485H66.2488H66.2492H66.2495H66.2498H66.2502H66.2505H66.2509H66.2512H66.2515H66.2519H66.2522H66.2526H66.2529H66.2533H66.2536H66.2539H66.2543H66.2546H66.255H66.2553H66.2557H66.256H66.2564H66.2567H66.2571H66.2574H66.2578H66.2581H66.2585H66.2588H66.2592H66.2595H66.2599H66.2602H66.2606H66.2609H66.2613H66.2616H66.262H66.2624H66.2627H66.2631H66.2634H66.2638H66.2641H66.2645H66.2648H66.2652H66.2656H66.2659H66.2663H66.2666H66.267H66.2674H66.2677H66.2681H66.2684H66.2688H66.2692H66.2695H66.2699H66.2703H66.2706H66.271H66.2713H66.2717H66.2721H66.2724H66.2728H66.2732H66.2735H66.2739H66.2743H66.2746H66.275H66.2754H66.2757H66.2761H66.2765H66.2768H66.2772H66.2776H66.278H66.2783H66.2787H66.2791H66.2794H66.2798H66.2802H66.2805H66.2809H66.2813H66.2817H66.282H66.2824H66.2828H66.2832H66.2835H66.2839H66.2843H66.2846H66.285H66.2854H66.2858H66.2861H66.2865H66.2869H66.2873H66.2876H66.288H66.2884H66.2888H66.2891H66.2895H66.2899H66.2903H66.2907H66.291H66.2914H66.2918H66.2922H66.2925H66.2929H66.2933H66.2937H66.294H66.2944H66.2948H66.2952H66.2956H66.2959H66.2963H66.2967H66.2971H66.2975H66.2978H66.2982H66.2986H66.299H66.2994H66.2997H66.3001H66.3005H66.3009H66.3013H66.3016H66.302H66.3024H66.3028H66.3032H66.3035H66.3039H66.3043H66.3047H66.3051H66.3054H66.3058H66.3062H66.3066H66.307H66.3074H66.3077H66.3081H66.3085H66.3089H66.3093H66.3096H66.31H66.3104H66.3108H66.3112H66.3116H66.3119H66.3123H66.3127C67.8712 44.2555 69.2927 42.986 69.3643 41.4104L69.3748 41.1797L69.1456 41.151L68.103 41.0207L67.8402 40.9878L67.8226 41.2521C67.7665 42.0932 67.0375 42.7036 66.2654 42.6484L66.2565 42.6478H66.2475C65.4859 42.6478 64.8685 41.9907 64.8685 41.2036V40.9536H64.6185H63.5108H63.2608V41.2036C63.2608 42.8347 64.5377 44.1842 66.1715 44.2552Z" fill="#83B5B0" stroke="#83B5B0" stroke-width="0.5"/>
<path d="M68.7888 48.4257C68.9224 48.4257 69.0667 48.4686 69.225 48.5716C69.5055 48.8143 69.5445 49.2372 69.3135 49.5144L60.3176 60.2967L54.4502 53.2936C54.4501 53.2936 54.4501 53.2935 54.45 53.2934C54.2192 53.0162 54.2582 52.5935 54.5386 52.3509C54.6969 52.2478 54.8412 52.205 54.9749 52.205C55.1514 52.205 55.3482 52.2943 55.5073 52.4501L60.1261 57.9796L60.3169 58.208L60.5089 57.9807L68.3281 48.7281L68.3474 48.7052L68.3608 48.6785C68.4429 48.5143 68.6089 48.4257 68.7888 48.4257ZM67.0351 47.6872L67.0351 47.6872L67.033 47.6897L60.317 55.7362L56.6647 51.4029L56.6647 51.4029L56.6634 51.4013C56.2239 50.8886 55.5675 50.5973 54.9097 50.5973C54.3852 50.5973 53.8805 50.8203 53.4679 51.0954L53.4567 51.1028L53.4465 51.1113C53.0007 51.4828 52.7137 52.0649 52.6417 52.6408C52.5661 53.2452 52.7946 53.8287 53.1425 54.3157L53.1481 54.3236L53.1543 54.331L59.2141 61.5637L59.2141 61.5637L59.2168 61.5669L60.0639 62.5443L60.2528 62.7623L60.4418 62.5443L61.2888 61.5669L61.2888 61.5669L61.2914 61.5639L70.4789 50.617L70.4795 50.6164C70.8441 50.1788 71.0655 49.5911 70.992 48.93L70.992 48.93L70.9916 48.9266C70.9207 48.359 70.6407 47.7852 70.2057 47.4131C69.8727 47.0145 69.3296 46.8832 68.7888 46.8832C68.131 46.8832 67.4746 47.1745 67.0351 47.6872Z" fill="#83B5B0" stroke="#83B5B0" stroke-width="0.5"/>
</svg>
