<svg width="192" height="172" viewBox="0 0 192 172" fill="none" xmlns="http://www.w3.org/2000/svg">
<path d="M131.914 83.234L132.406 83.5822L132.305 82.9884L129.426 65.9625C137.609 58.7409 142.089 49.4371 142.089 39.6804C142.089 29.2451 136.998 19.4595 127.798 12.0997L127.798 12.0996C118.663 4.8042 106.491 0.750061 93.5677 0.750061C80.6446 0.750061 68.473 4.80414 59.3379 12.0994C50.1371 19.3968 45.0462 29.2459 45.0462 39.6804C45.0462 49.4991 49.5254 58.8031 57.709 65.9629L54.7673 82.9875L54.6639 83.5858L55.1586 83.2337L69.0479 73.3485C76.4344 76.7954 84.877 78.6106 93.5046 78.6106C102.132 78.6106 110.575 76.7953 117.962 73.3484L131.914 83.234ZM69.0705 71.7008L68.9366 71.6339L68.8144 71.7203L56.8134 80.2058L59.2256 66.1549L59.5078 65.7598L59.6454 65.5671L59.4606 65.4192L59.1487 65.1697C51.0581 58.2067 46.6189 49.1876 46.6189 39.7435C46.6189 19.1076 67.5907 2.25966 93.5046 2.25966C119.419 2.25966 140.453 19.1082 140.453 39.6804C140.453 49.1244 136.014 58.1434 127.924 65.1065L127.612 65.3561L127.454 65.4824L127.544 65.6631L127.78 66.1349L130.196 80.2058L118.195 71.7203L118.073 71.6339L117.939 71.7008L117.689 71.8255C117.689 71.8258 117.688 71.8261 117.688 71.8264C110.405 75.3418 102.051 77.1641 93.5046 77.1641C84.9585 77.1641 76.6044 75.3418 69.3216 71.8264C69.321 71.8261 69.3204 71.8258 69.3198 71.8255L69.0705 71.7008Z" fill="#83B5B0" stroke="#83B5B0" stroke-width="0.5"/>
<path d="M96.2179 49.9001H96.4679V49.6501V12.9259V12.3243L96.0415 12.7487L82.2226 26.5045L82.149 26.5778V26.6817V35.7681V36.0181H82.399H83.4717H83.7217V35.7681V27.227L94.8952 16.0535V49.6501V49.9001H95.1452H96.2179Z" fill="#83B5B0" stroke="#83B5B0" stroke-width="0.5"/>
<path d="M90.8544 58.4187H91.1044V58.1687V38.1029V37.8529H90.8544H87.2553V35.0741V34.8241H87.0053H78.8654H78.6154V35.0741V37.8529H75.0163H74.7663V38.1029V58.1687V58.4187H75.0163H76.089H76.339V58.1687V39.3625H79.875H80.125V39.1125V36.3337H85.7457V39.1125V39.3625H85.9957H89.5317V58.1687V58.4187H89.7817H90.8544Z" fill="#83B5B0" stroke="#83B5B0" stroke-width="0.5"/>
<path d="M82.0811 41.1947V40.9447H81.8311H77.1617H76.9117V41.1947V42.2043V42.4543H77.1617H81.8311H82.0811V42.2043V41.1947Z" fill="#83B5B0" stroke="#83B5B0" stroke-width="0.5"/>
<path d="M88.8959 41.1947V40.9447H88.6459H83.9765H83.7265V41.1947V42.2043V42.4543H83.9765H88.6459H88.8959V42.2043V41.1947Z" fill="#83B5B0" stroke="#83B5B0" stroke-width="0.5"/>
<path d="M82.0811 43.845V43.595H81.8311H77.1617H76.9117V43.845V44.8546V45.1046H77.1617H81.8311H82.0811V44.8546V43.845Z" fill="#83B5B0" stroke="#83B5B0" stroke-width="0.5"/>
<path d="M88.8959 43.845V43.595H88.6459H83.9765H83.7265V43.845V44.8546V45.1046H83.9765H88.6459H88.8959V44.8546V43.845Z" fill="#83B5B0" stroke="#83B5B0" stroke-width="0.5"/>
<path d="M82.0811 46.4951V46.2451H81.8311H77.1617H76.9117V46.4951V47.5047V47.7547H77.1617H81.8311H82.0811V47.5047V46.4951Z" fill="#83B5B0" stroke="#83B5B0" stroke-width="0.5"/>
<path d="M88.8959 46.4951V46.2451H88.6459H83.9765H83.7265V46.4951V47.5047V47.7547H83.9765H88.6459H88.8959V47.5047V46.4951Z" fill="#83B5B0" stroke="#83B5B0" stroke-width="0.5"/>
<path d="M82.0811 49.1454V48.8954H81.8311H77.1617H76.9117V49.1454V50.155V50.405H77.1617H81.8311H82.0811V50.155V49.1454Z" fill="#83B5B0" stroke="#83B5B0" stroke-width="0.5"/>
<path d="M88.8959 49.1454V48.8954H88.6459H83.9765H83.7265V49.1454V50.155V50.405H83.9765H88.6459H88.8959V50.155V49.1454Z" fill="#83B5B0" stroke="#83B5B0" stroke-width="0.5"/>
<path d="M82.0811 51.7955V51.5455H81.8311H77.1617H76.9117V51.7955V52.8051V53.0551H77.1617H81.8311H82.0811V52.8051V51.7955Z" fill="#83B5B0" stroke="#83B5B0" stroke-width="0.5"/>
<path d="M88.8959 51.7955V51.5455H88.6459H83.9765H83.7265V51.7955V52.8051V53.0551H83.9765H88.6459H88.8959V52.8051V51.7955Z" fill="#83B5B0" stroke="#83B5B0" stroke-width="0.5"/>
<path d="M82.0811 54.4457V54.1957H81.8311H77.1617H76.9117V54.4457V55.4553V55.7053H77.1617H81.8311H82.0811V55.4553V54.4457Z" fill="#83B5B0" stroke="#83B5B0" stroke-width="0.5"/>
<path d="M88.8959 54.4457V54.1957H88.6459H83.9765H83.7265V54.4457V55.4553V55.7053H83.9765H88.6459H88.8959V55.4553V54.4457Z" fill="#83B5B0" stroke="#83B5B0" stroke-width="0.5"/>
<path d="M82.0811 57.0959V56.8459H81.8311H77.1617H76.9117V57.0959V58.1055V58.3555H77.1617H81.8311H82.0811V58.1055V57.0959Z" fill="#83B5B0" stroke="#83B5B0" stroke-width="0.5"/>
<path d="M88.8959 57.0959V56.8459H88.6459H83.9765H83.7265V57.0959V58.1055V58.3555H83.9765H88.6459H88.8959V58.1055V57.0959Z" fill="#83B5B0" stroke="#83B5B0" stroke-width="0.5"/>
<path d="M86.4981 27.9437V27.6937H86.2481H84.8599H84.6099V27.9437V29.3319V29.5819H84.8599H86.2481H86.4981V29.3319V27.9437Z" fill="#83B5B0" stroke="#83B5B0" stroke-width="0.5"/>
<path d="M90.221 27.9437V27.6937H89.971H88.5828H88.3328V27.9437V29.3319V29.5819H88.5828H89.971H90.221V29.3319V27.9437Z" fill="#83B5B0" stroke="#83B5B0" stroke-width="0.5"/>
<path d="M93.9439 27.9437V27.6937H93.6939H92.3057H92.0557V27.9437V29.3319V29.5819H92.3057H93.6939H93.9439V29.3319V27.9437Z" fill="#83B5B0" stroke="#83B5B0" stroke-width="0.5"/>
<path d="M86.4981 31.856V31.606H86.2481H84.8599H84.6099V31.856V33.2442V33.4942H84.8599H86.2481H86.4981V33.2442V31.856Z" fill="#83B5B0" stroke="#83B5B0" stroke-width="0.5"/>
<path d="M90.221 31.856V31.606H89.971H88.5828H88.3328V31.856V33.2442V33.4942H88.5828H89.971H90.221V33.2442V31.856Z" fill="#83B5B0" stroke="#83B5B0" stroke-width="0.5"/>
<path d="M93.9439 31.856V31.606H93.6939H92.3057H92.0557V31.856V33.2442V33.4942H92.3057H93.6939H93.9439V33.2442V31.856Z" fill="#83B5B0" stroke="#83B5B0" stroke-width="0.5"/>
<path d="M90.221 35.7051V35.4551H89.971H88.5828H88.3328V35.7051V37.0933V37.3433H88.5828H89.971H90.221V37.0933V35.7051Z" fill="#83B5B0" stroke="#83B5B0" stroke-width="0.5"/>
<path d="M93.9439 35.7051V35.4551H93.6939H92.3057H92.0557V35.7051V37.0933V37.3433H92.3057H93.6939H93.9439V37.0933V35.7051Z" fill="#83B5B0" stroke="#83B5B0" stroke-width="0.5"/>
<path d="M93.9439 39.6172V39.3672H93.6939H92.3057H92.0557V39.6172V41.0054V41.2554H92.3057H93.6939H93.9439V41.0054V39.6172Z" fill="#83B5B0" stroke="#83B5B0" stroke-width="0.5"/>
<path d="M93.9439 43.4664V43.2164H93.6939H92.3057H92.0557V43.4664V44.8546V45.1046H92.3057H93.6939H93.9439V44.8546V43.4664Z" fill="#83B5B0" stroke="#83B5B0" stroke-width="0.5"/>
<path d="M93.9439 47.3785V47.1285H93.6939H92.3057H92.0557V47.3785V48.7667V49.0167H92.3057H93.6939H93.9439V48.7667V47.3785Z" fill="#83B5B0" stroke="#83B5B0" stroke-width="0.5"/>
<path d="M110.605 58.4186H110.855V58.1686V51.1645V51.0474L110.765 50.9725L106.222 47.1865L106.066 47.0565L105.906 47.1825L101.834 50.4041L97.7612 47.1825L97.602 47.0565L97.4461 47.1865L92.9029 50.9725L92.8129 51.0474V51.1645V58.1686V58.4186H93.0629H94.1356H94.3856V58.1686V51.7231L97.6105 49.0259L101.679 52.244L101.834 52.3667L101.989 52.244L106.059 49.0247L109.345 51.7244V58.1686V58.4186H109.595H110.605Z" fill="#83B5B0" stroke="#83B5B0" stroke-width="0.5"/>
<path d="M113.507 58.4188H113.757V58.1688V41.0687V40.8187H113.507H110.602V27.5022V27.3986L110.529 27.3254L106.617 23.4132L106.44 23.2364L106.263 23.4132L102.351 27.3254L102.278 27.3986V27.5022V40.8187H98.868H98.618V41.0687V49.3348V49.5848H98.868H99.9407H100.191V49.3348V42.3914H103.601H103.851V42.1414V28.0458L106.442 25.3968L109.093 28.0474V42.1414V42.3914H109.343H112.185V58.1688V58.4188H112.435H113.507Z" fill="#83B5B0" stroke="#83B5B0" stroke-width="0.5"/>
<path d="M108.081 57.2829H108.331V57.0329V52.8683V52.6183H108.081H103.916H103.666V52.8683V57.0329V57.2829H103.916H108.081ZM106.758 55.7102H105.176V54.1279H106.758V55.7102Z" fill="#83B5B0" stroke="#83B5B0" stroke-width="0.5"/>
<path d="M99.9408 57.2829H100.191V57.0329V52.8683V52.6183H99.9408H95.7762H95.5262V52.8683V57.0329V57.2829H95.7762H99.9408ZM98.6181 55.7102H97.0358V54.1279H98.6181V55.7102Z" fill="#83B5B0" stroke="#83B5B0" stroke-width="0.5"/>
<path d="M107.195 27.8175V27.5675H106.945H105.935H105.685V27.8175V41.7626V42.0126H105.935H106.945H107.195V41.7626V27.8175Z" fill="#83B5B0" stroke="#83B5B0" stroke-width="0.5"/>
<path d="M114.582 49.4608C114.582 51.555 116.272 53.2444 118.366 53.2444C120.46 53.2444 122.15 51.555 122.15 49.4608C122.15 48.5532 121.831 45.6322 121.261 42.973C120.755 40.538 120.259 39.1326 119.788 38.3311C119.551 37.928 119.313 37.6641 119.07 37.5016C118.822 37.3356 118.582 37.2849 118.366 37.2849C118.15 37.2849 117.91 37.3356 117.662 37.5016C117.419 37.6641 117.181 37.928 116.944 38.3311C116.473 39.1327 115.977 40.5382 115.471 42.9736C114.902 45.6943 114.582 48.5528 114.582 49.4608ZM116.907 43.4537C117.347 41.3806 117.737 40.2003 118.027 39.5359C118.161 39.2291 118.272 39.0369 118.353 38.9192C118.618 39.3045 119.166 40.394 119.825 43.454C120.329 45.9731 120.64 48.6659 120.64 49.3977C120.64 50.6478 119.616 51.6717 118.366 51.6717C117.116 51.6717 116.092 50.6478 116.092 49.3977C116.092 48.603 116.403 45.9733 116.907 43.4537Z" fill="#83B5B0" stroke="#83B5B0" stroke-width="0.5"/>
<path d="M119.121 52.4265V52.1765H118.871H117.861H117.611V52.4265V58.1686V58.4186H117.861H118.871H119.121V58.1686V52.4265Z" fill="#83B5B0" stroke="#83B5B0" stroke-width="0.5"/>
<path d="M119.188 52.1464L118.978 52.2669L119.092 52.4812C119.641 53.5108 120.8 54.191 121.963 54.191C123.738 54.191 125.241 52.6943 125.241 50.9753C125.241 50.2737 124.948 48.697 124.421 47.2983C124.156 46.597 123.826 45.9219 123.431 45.4173C123.041 44.9179 122.55 44.5415 121.963 44.5415C121.622 44.5415 121.332 44.5927 121.064 44.7614C120.804 44.9254 120.59 45.1842 120.364 45.5407L120.223 45.7619L120.45 45.892L121.334 46.3968L121.536 46.5125L121.666 46.3184C121.73 46.2216 121.774 46.1567 121.809 46.1096C121.826 46.0868 121.838 46.0717 121.847 46.0615C121.85 46.0583 121.852 46.0558 121.854 46.0539C121.867 46.0529 121.898 46.0511 121.963 46.0511C121.965 46.0511 122.008 46.055 122.095 46.1351C122.178 46.2108 122.273 46.3303 122.376 46.4938C122.582 46.8194 122.796 47.2807 122.99 47.8046C123.38 48.8562 123.669 50.1024 123.669 50.9122C123.669 51.8468 122.897 52.6183 121.963 52.6183C121.297 52.6183 120.746 52.289 120.41 51.7301L120.284 51.5202L120.072 51.6416L119.188 52.1464Z" fill="#83B5B0" stroke="#83B5B0" stroke-width="0.5"/>
<path d="M122.717 53.373V53.123H122.467H121.458H121.208V53.373V58.1686V58.4186H121.458H122.467H122.717V58.1686V53.373Z" fill="#83B5B0" stroke="#83B5B0" stroke-width="0.5"/>
<path d="M66.5633 49.9025C66.5633 51.9336 68.1896 53.5599 70.2207 53.5599C72.2548 53.5599 73.8781 51.8675 73.8781 49.9025C73.8781 49.1089 73.5704 47.3126 72.9874 45.7153C72.6954 44.9153 72.3278 44.1466 71.8822 43.5732C71.4397 43.0038 70.8861 42.5853 70.2207 42.5853C69.5688 42.5853 69.0231 43.0065 68.5853 43.5739C68.1433 44.1466 67.7739 44.9145 67.478 45.7143C66.8875 47.3104 66.5633 49.1073 66.5633 49.9025ZM68.0729 49.9025C68.0729 48.998 68.4093 47.5153 68.8776 46.2507C69.111 45.6204 69.3718 45.0596 69.6299 44.6612C69.7593 44.4614 69.8818 44.3123 69.9923 44.2158C70.1056 44.1168 70.1809 44.0949 70.2207 44.0949C70.2605 44.0949 70.3358 44.1168 70.4491 44.2158C70.5595 44.3123 70.682 44.4614 70.8115 44.6612C71.0696 45.0596 71.3303 45.6204 71.5638 46.2507C72.0321 47.5153 72.3685 48.998 72.3685 49.9025C72.3685 51.0896 71.4077 52.0503 70.2207 52.0503C69.0337 52.0503 68.0729 51.0896 68.0729 49.9025Z" fill="#83B5B0" stroke="#83B5B0" stroke-width="0.5"/>
<path d="M70.9754 52.7421V52.4921H70.7254H69.7158H69.4658V52.7421V58.1687V58.4187H69.7158H70.7254H70.9754V58.1687V52.7421Z" fill="#83B5B0" stroke="#83B5B0" stroke-width="0.5"/>
<path d="M65.3423 55.0105L65.3521 55.0113H65.362H65.3627H65.3635H65.3642H65.365H65.3657H65.3664H65.3672H65.3679H65.3687H65.3694H65.3701H65.3709H65.3716H65.3723H65.3731H65.3738H65.3746H65.3753H65.376H65.3768H65.3775H65.3783H65.379H65.3797H65.3805H65.3812H65.382H65.3827H65.3834H65.3842H65.3849H65.3857H65.3864H65.3871H65.3879H65.3886H65.3894H65.3901H65.3908H65.3916H65.3923H65.3931H65.3938H65.3945H65.3953H65.396H65.3968H65.3975H65.3982H65.399H65.3997H65.4004H65.4012H65.4019H65.4027H65.4034H65.4041H65.4049H65.4056H65.4064H65.4071H65.4078H65.4086H65.4093H65.4101H65.4108H65.4115H65.4123H65.413H65.4138H65.4145H65.4152H65.416H65.4167H65.4175H65.4182H65.4189H65.4197H65.4204H65.4212H65.4219H65.4226H65.4234H65.4241H65.4249H65.4256H65.4263H65.4271H65.4278H65.4285H65.4293H65.43H65.4308H65.4315H65.4322H65.433H65.4337H65.4345H65.4352H65.4359H65.4367H65.4374H65.4382H65.4389H65.4396H65.4404H65.4411H65.4419H65.4426H65.4433H65.4441H65.4448H65.4456H65.4463H65.447H65.4478H65.4485H65.4493H65.45H65.4507H65.4515H65.4522H65.453H65.4537H65.4544H65.4552H65.4559H65.4566H65.4574H65.4581H65.4589H65.4596H65.4603H65.4611H65.4618H65.4626H65.4633H65.464H65.4648H65.4655H65.4663H65.467H65.4677H65.4685H65.4692H65.47H65.4707H65.4714H65.4722H65.4729H65.4737H65.4744H65.4751H65.4759H65.4766H65.4774H65.4781H65.4788H65.4796H65.4803H65.481H65.4818H65.4825H65.4833H65.484H65.4847H65.4855H65.4862H65.487H65.4877H65.4884H65.4892H65.4899H65.4907H65.4914H65.4921H65.4929H65.4936H65.4944H65.4951H65.4958H65.4966H65.4973H65.4981H65.4988H65.4995H65.5003H65.501H65.5018H65.5025H65.5032H65.504H65.5047H65.5055H65.5062H65.5069H65.5077H65.5084H65.5091H65.5099H65.5106H65.5114H65.5121H65.5128H65.5136H65.5143H65.5151H65.5158H65.5165H65.5173H65.518H65.5188H65.5195H65.5202H65.521H65.5217H65.5225H65.5232H65.5239H65.5247H65.5254H65.5262H65.5269H65.5276H65.5284H65.5291H65.5299H65.5306H65.5313H65.5321H65.5328H65.5336H65.5343H65.535H65.5358H65.5365H65.5372H65.538H65.5387H65.5395H65.5402H65.5409H65.5417H65.5424H65.5432H65.5439H65.5446H65.5454H65.5461H65.5469H65.5476H65.5483H65.5491H65.5498H65.5506H65.5513H65.552H65.5528H65.5535H65.5543H65.555H65.5557H65.5565H65.5572H65.558H65.5587H65.5594H65.5602H65.5609H65.5616H65.5624H65.5631H65.5639H65.5646H65.5653H65.5661H65.5668H65.5676H65.5683H65.569H65.5698H65.5705H65.5713H65.572H65.5727H65.5735H65.5742H65.575H65.5757H65.5764H65.5772H65.5779H65.5787H65.5794H65.5801H65.5809H65.5816H65.5824H65.5831H65.5838H65.5846H65.5853H65.5861H65.5868H65.5875H65.5883H65.589H65.5897H65.5905H65.5912H65.592H65.5927H65.5934H65.5942H65.5949H65.5957H65.5964H65.5971H65.5979H65.5986H65.5994H65.6001H65.6008H65.6016H65.6023H65.6031H65.6038H65.6045H65.6053H65.606H65.6068H65.6075H65.6082H65.609H65.6097H65.6105H65.6112H65.6119H65.6127H65.6134H65.6142H65.6149H65.6156H65.6164H65.6171H65.6178H65.6186H65.6193H65.6201H65.6208H65.6215H65.6223H65.623H65.6238H65.6245H65.6252H65.626H65.6267H65.6275H65.6282H65.6289H65.6297H65.6304H65.6312H65.6319H65.6326H65.6334H65.6341H65.6349H65.6356H65.6363H65.6371H65.6378H65.6386H65.6393H65.64H65.6408H65.6415H65.6422H65.643H65.6437H65.6445H65.6452H65.6459H65.6467H65.6474H65.6482H65.6489H65.6496H65.6504H65.6511H65.6519H65.6526H65.6533H65.6541H65.6548H65.6556H65.6563H65.657H65.6578H65.6585H65.6593H65.66H65.6607H65.6615H65.6622H65.663H65.6637H65.6644H65.6652H65.6659H65.6667H65.6674H65.6681H65.6689H65.6696H65.6703H65.6711H65.6718H65.6726H65.6733H65.674H65.6748H65.6755H65.6763H65.677H65.6777H65.6785H65.6792H65.68H65.6807H65.6814H65.6822H65.6829H65.6837H65.6844H65.6851H65.6859H65.6866H65.6874H65.6881H65.6888H65.6896H65.6903H65.6911H65.6918H65.6925H65.6933H65.694H65.6948H65.6955H65.6962H65.697H65.6977H65.6984H65.6992H65.6999H65.7007H65.7014H65.7021H65.7029H65.7036H65.7044H65.7051H65.7058H65.7066H65.7073H65.7081H65.7088H65.7095H65.7103H65.711H65.7118H65.7125H65.7132H65.714H65.7147H65.7155H65.7162H65.7169H65.7177H65.7184H65.7192H65.7199H65.7206H65.7214H65.7221H65.7228H65.7236H65.7243H65.7251H65.7258H65.7265H65.7273H65.728H65.7288H65.7295H65.7302H65.731H65.7317H65.7325H65.7332H65.7339H65.7347H65.7354H65.7362H65.7369H65.7376H65.7384H65.7391H65.7399H65.7406C67.2806 55.0113 68.8065 54.145 69.6698 52.8832L69.8151 52.6709L69.5987 52.5318L68.7153 51.9639L68.4965 51.8232L68.3646 52.0474C67.7819 53.038 66.6758 53.6192 65.5131 53.5029L65.5131 53.5028L65.506 53.5023C64.6827 53.4435 63.9294 53.0922 63.4101 52.4576L63.4103 52.4574L63.4024 52.4486C62.8875 51.8765 62.6496 51.0636 62.7088 50.2359C62.7676 49.4126 63.1188 48.6592 63.7535 48.14L63.7537 48.1402L63.7624 48.1323C64.3346 47.6173 65.1474 47.3795 65.9752 47.4386L65.9841 47.4393H65.993C66.4417 47.4393 66.9594 47.6099 67.3621 47.8975L67.5757 48.0501L67.7177 47.8293L68.2856 46.9459L68.425 46.729L68.2039 46.5963C67.5475 46.2025 66.8185 45.9353 66.0812 45.8678C64.8725 45.7343 63.6698 46.138 62.7384 46.9364C61.8088 47.7331 61.2053 48.8662 61.1372 50.0751C60.9388 52.6084 62.807 54.8103 65.3423 55.0105Z" fill="#83B5B0" stroke="#83B5B0" stroke-width="0.5"/>
<path d="M66.4323 54.1932V53.9432H66.1823H65.1727H64.9227V54.1932V58.1685V58.4185H65.1727H66.1823H66.4323V58.1685V54.1932Z" fill="#83B5B0" stroke="#83B5B0" stroke-width="0.5"/>
<path d="M148.212 88.4544H149.159C149.405 88.4544 149.629 88.3712 149.793 88.2076C149.957 88.044 150.04 87.8195 150.04 87.5734V84.4815C150.04 84.0444 149.691 83.6005 149.159 83.6005H148.212C147.775 83.6005 147.331 83.9488 147.331 84.4815V87.5734C147.331 88.0104 147.68 88.4544 148.212 88.4544Z" fill="#83B5B0" stroke="#83B5B0" stroke-width="0.5"/>
<path d="M168.154 103.222V103.472H168.404C172.517 103.472 175.787 100.142 175.721 96.1508L175.717 95.9049H175.471H174.462H174.212V96.1549C174.212 99.3611 171.61 101.963 168.404 101.963H168.154V102.213V103.222Z" fill="#83B5B0" stroke="#83B5B0" stroke-width="0.5"/>
<path d="M163.023 100.466L163.284 100.299L164.168 99.7306L164.371 99.6002L163.023 100.466ZM163.023 100.466L163.234 100.677M163.023 100.466L163.234 100.677M163.234 100.677L163.251 100.7L163.254 100.704C163.271 100.726 163.295 100.758 163.324 100.796C163.387 100.878 163.477 100.99 163.593 101.123C163.824 101.389 164.16 101.738 164.597 102.085C165.469 102.778 166.753 103.472 168.404 103.472H168.467H168.717V103.222V102.213V101.963H168.467C167.249 101.963 166.262 101.428 165.57 100.881C165.225 100.608 164.958 100.335 164.777 100.13C164.687 100.028 164.618 99.9436 164.573 99.8853C164.551 99.8561 164.534 99.8336 164.523 99.8187L164.511 99.8023L164.508 99.7987L164.508 99.7983L164.508 99.7982L164.508 99.7981L163.234 100.677ZM163.228 100.67C163.228 100.67 163.229 100.67 163.23 100.672C163.229 100.671 163.229 100.67 163.228 100.67Z" fill="#83B5B0" stroke="#83B5B0" stroke-width="0.5"/>
<path d="M168.533 98.732L168.769 98.791L168.834 98.5569C169.253 97.063 170.138 96.3939 170.924 96.0881C171.656 95.8036 172.309 95.8294 172.473 95.8359C172.488 95.8365 172.499 95.8369 172.506 95.8369H172.726L172.754 95.6179L172.88 94.6083L172.915 94.3273H172.632C172.645 94.3273 172.356 94.3036 171.959 94.3319C171.554 94.3607 171.007 94.443 170.424 94.6583C169.247 95.0922 167.936 96.0629 167.343 98.1694L167.274 98.4172L167.523 98.4796L168.533 98.732Z" fill="#83B5B0" stroke="#83B5B0" stroke-width="0.5"/>
<path d="M167.781 102.56L167.731 102.315L167.486 102.365L166.497 102.567L166.252 102.617L166.302 102.862L167.25 107.499L167.3 107.744L167.545 107.694L168.534 107.491L168.779 107.441L168.729 107.196L167.781 102.56Z" fill="#83B5B0" stroke="#83B5B0" stroke-width="0.5"/>
<path d="M155.374 107.655L155.324 107.41L155.079 107.46L154.09 107.663L153.845 107.713L153.895 107.958L154.54 111.11L154.59 111.355L154.835 111.305L155.824 111.103L156.069 111.053L156.019 110.808L155.374 107.655Z" fill="#83B5B0" stroke="#83B5B0" stroke-width="0.5"/>
<path d="M186.262 171.178H186.512V170.928C186.512 150.643 182.909 136.795 179.934 128.754L179.934 128.754L179.933 128.751C176.892 120.808 173.968 116.869 173.304 116.045L170.982 106.131L170.924 105.88L170.675 105.946L152.818 110.679L152.59 110.739L152.637 110.969L154.025 117.91L154.073 118.152L154.316 118.107L155.326 117.918L155.574 117.871L155.525 117.623L154.372 111.859L169.797 107.758L171.884 116.656L171.89 116.685L171.904 116.711L171.967 116.837L172.036 116.975H172.086C172.107 116.999 172.132 117.029 172.163 117.066C172.259 117.184 172.4 117.364 172.578 117.608C172.934 118.097 173.439 118.84 174.042 119.851C175.249 121.873 176.852 124.967 178.455 129.244C181.411 137.167 185.002 150.83 185.002 170.928V171.178H185.252H186.262Z" fill="#83B5B0" stroke="#83B5B0" stroke-width="0.5"/>
<path d="M142.134 102.493C143.651 102.322 144.809 101.804 145.682 100.869L145.682 100.869L145.687 100.863C146.387 100.063 146.701 99.1668 146.841 98.4676C146.911 98.1174 146.937 97.8144 146.947 97.594C146.956 97.3785 146.948 97.2252 146.948 97.2275V97.212L146.946 97.1965L146.883 96.6917L146.855 96.4727H146.635H141.517C141.715 95.523 141.896 94.4442 142.031 93.5746C142.106 93.0922 142.167 92.6731 142.21 92.3745C142.231 92.2252 142.248 92.106 142.259 92.024L142.272 91.9299L142.275 91.9055L142.276 91.8994L142.276 91.8992L142.276 91.8976L142.276 91.8972L142.276 91.8971L142.339 91.4577L142.37 91.2418L142.16 91.1819L141.719 91.0557L141.711 91.0537L141.704 91.0521C139.333 90.5251 138.295 89.1837 137.908 88.5307C141.843 87.0775 143.604 84.2346 145.208 81.5819L145.208 81.5819L145.21 81.5785C146.094 80.0627 147.025 78.5142 148.385 77.2164L148.562 77.0472L148.397 76.8666L147.702 76.1094L147.526 75.9169L147.341 76.1015C145.868 77.5752 144.845 79.1744 143.897 80.7545L143.869 80.7999C142.24 83.4327 140.701 85.9177 137.104 87.1423C136.682 87.2344 136.449 87.5723 136.315 87.84L136.539 87.9518L136.315 87.84C136.155 88.161 136.154 88.5568 136.313 88.8786C136.584 89.486 137.723 91.4208 140.615 92.2963C140.468 93.3237 140.121 95.3255 139.829 96.7303C139.746 97.0669 139.838 97.3266 139.991 97.5555L140.004 97.5761L140.022 97.5936C140.175 97.747 140.424 97.9192 140.767 97.9192H145.212C145.122 98.4427 144.909 99.1184 144.368 99.7085C143.675 100.46 142.554 100.89 140.956 100.89C140.661 100.89 140.468 101.084 140.353 101.199C140.348 101.205 140.342 101.21 140.337 101.215L140.309 101.244L140.29 101.28C140.218 101.426 140.119 101.69 140.213 101.974C141.633 106.362 145.764 109.467 150.231 109.467C153.372 109.467 155.856 108.026 157.585 106.585C158.45 105.864 159.13 105.14 159.612 104.59C159.794 104.383 159.948 104.2 160.072 104.052C160.113 104.004 160.15 103.959 160.184 103.919C160.255 103.836 160.309 103.774 160.349 103.731C160.364 103.715 160.375 103.704 160.383 103.696L160.808 103.526L160.4 103.264L159.516 102.696L159.347 102.587L159.204 102.73C159.194 102.74 159.186 102.749 159.184 102.752L159.184 102.752L159.176 102.763L159.163 102.781L159.126 102.832C159.096 102.874 159.054 102.932 158.999 103.006C158.89 103.154 158.731 103.363 158.524 103.611C158.111 104.109 157.509 104.767 156.742 105.422C155.204 106.734 153.02 108.02 150.358 108.02C146.848 108.02 143.561 105.824 142.134 102.493ZM160.396 103.685C160.395 103.686 160.395 103.686 160.393 103.687C160.395 103.686 160.396 103.685 160.396 103.685Z" fill="#83B5B0" stroke="#83B5B0" stroke-width="0.5"/>
<path d="M167.131 171.041L167.365 171.114L167.443 170.881C167.511 170.677 173.07 151.343 173.639 131.435L173.646 131.178H173.389H172.38H172.137L172.13 131.421C171.846 141.245 170.319 150.947 168.853 158.22C168.121 161.855 167.404 164.882 166.866 167.011C166.598 168.076 166.374 168.916 166.215 169.496C166.136 169.786 166.073 170.01 166.029 170.165C166.007 170.242 165.99 170.302 165.977 170.344L165.963 170.393C165.959 170.406 165.958 170.409 165.959 170.408L165.878 170.65L166.121 170.726L167.131 171.041Z" fill="#83B5B0" stroke="#83B5B0" stroke-width="0.5"/>
<path d="M155.658 132.498H155.908V132.248C155.908 127.719 159.644 123.978 164.243 123.917L164.49 123.913V123.667V122.657V122.407H164.24C158.801 122.407 154.398 126.81 154.398 132.248V132.498H154.648H155.658Z" fill="#83B5B0" stroke="#83B5B0" stroke-width="0.5"/>
<path d="M155.908 132.248V131.998H155.658H154.648H154.398V132.248V170.613V170.863H154.648H155.658H155.908V170.613V132.248Z" fill="#83B5B0" stroke="#83B5B0" stroke-width="0.5"/>
<path d="M38.1027 88.4541H39.0492C39.5819 88.4541 39.9302 88.0102 39.9302 87.5731V84.4812C39.9302 83.9486 39.4863 83.6002 39.0492 83.6002H38.1027C37.5701 83.6002 37.2217 84.0442 37.2217 84.4812V87.5731C37.2217 87.8192 37.3049 88.0437 37.4685 88.2074C37.6321 88.371 37.8566 88.4541 38.1027 88.4541Z" fill="#83B5B0" stroke="#83B5B0" stroke-width="0.5"/>
<path d="M20.6872 96.3417H20.9372V96.0917C20.9372 93.4927 18.8061 91.3616 16.2071 91.3616C13.6081 91.3616 11.477 93.4927 11.477 96.0917V96.3417H11.727H12.7366H12.9866V96.0917C12.9866 94.3367 14.4522 92.8712 16.2071 92.8712C17.962 92.8712 19.4276 94.3367 19.4276 96.0917V96.3417H19.6776H20.6872Z" fill="#83B5B0" stroke="#83B5B0" stroke-width="0.5"/>
<path d="M11.727 95.8417H11.477V96.0917C11.477 100.037 14.5781 103.302 18.5442 103.466V103.472H18.7942H18.8573V103.222H19.0442V102.149V101.899H18.7942C15.588 101.899 12.9866 99.2979 12.9866 96.0917V95.8417H12.7366H11.727Z" fill="#83B5B0" stroke="#83B5B0" stroke-width="0.5"/>
<path d="M18.6073 103.222V103.472H18.8573C20.5085 103.472 21.7919 102.778 22.6717 102.085C23.1119 101.739 23.4535 101.391 23.6924 101.127C23.8052 101.002 23.8954 100.896 23.961 100.818C23.9648 100.814 23.9686 100.809 23.9723 100.805C24.0063 100.765 24.0306 100.736 24.0481 100.717L24.0485 100.717L24.4099 100.536L24.0405 100.298L23.1571 99.7305L23.0953 99.6908H23.0219C22.9459 99.6908 22.8927 99.7256 22.8832 99.7318C22.8829 99.732 22.8826 99.7322 22.8824 99.7323C22.8648 99.7437 22.8517 99.7551 22.8449 99.7612C22.8305 99.774 22.8175 99.7879 22.8085 99.7977C22.7895 99.8186 22.7654 99.847 22.74 99.877C22.7358 99.882 22.7314 99.8872 22.7269 99.8925C22.6754 99.9535 22.6077 100.034 22.5224 100.129C22.3371 100.335 22.071 100.608 21.7299 100.881C21.0463 101.428 20.0746 101.962 18.8573 101.962H18.6073V102.212V103.222Z" fill="#83B5B0" stroke="#83B5B0" stroke-width="0.5"/>
<path d="M18.4272 98.5569L18.4928 98.791L18.7286 98.732L19.7382 98.4796L19.9879 98.4172L19.9182 98.1694C19.3258 96.0629 18.0145 95.0922 16.8378 94.6583C16.2542 94.443 15.7074 94.3607 15.303 94.3319C14.9059 94.3036 14.6168 94.3273 14.6296 94.3273H14.3464L14.3815 94.6083L14.5077 95.6179L14.5351 95.8369H14.7558C14.7622 95.8369 14.7733 95.8365 14.7886 95.8359C14.9526 95.8294 15.6059 95.8036 16.3373 96.0881C17.1238 96.3939 18.0089 97.063 18.4272 98.5569Z" fill="#83B5B0" stroke="#83B5B0" stroke-width="0.5"/>
<path d="M18.3612 102.332L18.1163 102.282L18.0662 102.526L16.574 109.821L16.5239 110.066L16.7689 110.116L17.758 110.318L18.0029 110.369L18.053 110.124L19.5451 102.829L19.5952 102.584L19.3503 102.534L18.3612 102.332Z" fill="#83B5B0" stroke="#83B5B0" stroke-width="0.5"/>
<path d="M32.2667 108.085L32.0218 108.035L31.9717 108.28L30.5301 115.327L30.48 115.572L30.7249 115.622L31.714 115.825L31.959 115.875L32.0091 115.63L33.4506 108.582L33.5007 108.337L33.2558 108.287L32.2667 108.085Z" fill="#83B5B0" stroke="#83B5B0" stroke-width="0.5"/>
<path d="M46.8737 171.178H47.1237V170.928C47.1237 150.642 43.458 136.794 40.4831 128.629L40.4821 128.626C38.8361 124.258 37.1888 121.105 35.9351 119.018C35.3082 117.975 34.7798 117.198 34.3995 116.669C34.2092 116.405 34.0562 116.203 33.9466 116.06C33.892 115.989 33.8481 115.933 33.8166 115.893C33.8006 115.873 33.7884 115.857 33.7792 115.845C33.7772 115.842 33.7755 115.84 33.7741 115.838L33.7201 115.73L33.6778 115.646L33.5901 115.61L17.1841 108.985L16.9548 108.892L16.8597 109.12L14.0331 115.904C13.5139 116.571 10.4511 120.509 7.39156 128.626L7.39142 128.627C4.35224 136.731 0.75 150.58 0.75 170.865V171.115H1H2.1358H2.3858V170.865C2.3858 150.766 5.91396 137.166 8.86933 129.243C10.473 124.967 12.0755 121.873 13.2828 119.842C13.8864 118.827 14.3913 118.078 14.7481 117.58C14.9265 117.331 15.0678 117.145 15.1658 117.019C15.2424 116.922 15.288 116.867 15.3045 116.847C15.3103 116.84 15.3125 116.838 15.3112 116.839L15.3743 116.776L15.4097 116.74L15.4288 116.694L17.795 110.93L32.7105 116.995C33.3038 117.749 36.1839 121.638 39.0676 129.307C42.0229 137.23 45.551 150.893 45.551 170.928V171.178H45.801H46.8737Z" fill="#83B5B0" stroke="#83B5B0" stroke-width="0.5"/>
<path d="M12.2318 96.8465H12.4818V96.5965V95.5238V95.2738H12.2318C11.6787 95.2738 10.442 95.212 9.09153 94.8184C7.74029 94.4246 6.29765 93.7054 5.30066 92.407C3.85387 90.477 3.58503 87.6047 4.58585 83.8516L4.58604 83.8516L4.58819 83.8421C6.70784 74.4283 15.251 67.6312 24.8518 67.6312C28.3442 67.6312 31.7737 68.5044 34.7656 70.125L34.9805 70.2414L35.1018 70.0292L35.6066 69.1458L35.7347 68.9216L35.5065 68.8008C32.2538 67.0788 28.554 66.1216 24.8518 66.1216C19.7458 66.1216 14.7688 67.9085 10.8129 71.0988L10.8129 71.0988L10.8113 71.1C6.92168 74.2883 4.17821 78.6882 3.09209 83.5372C1.94795 87.6732 2.24914 91.0464 4.08353 93.4052C6.49573 96.5341 10.5822 96.8465 12.2318 96.8465Z" fill="#83B5B0" stroke="#83B5B0" stroke-width="0.5"/>
<path d="M35.1913 78.45L35.317 78.6133L35.5013 78.5212C35.5412 78.5012 35.6161 78.4487 35.6977 78.3875C35.7884 78.3195 35.9091 78.2241 36.0493 78.1037C36.3294 77.8631 36.6906 77.5203 37.0482 77.0936C37.7591 76.2454 38.479 75.0379 38.479 73.6282C38.479 71.8772 37.465 70.2958 35.5328 68.9433L35.3371 68.8062L35.1913 68.9956L34.5603 69.8159L34.403 70.0205L34.6124 70.1713C36.1644 71.2887 36.9063 72.4224 36.9063 73.5651C36.9063 74.5487 36.3531 75.4696 35.7664 76.1644C35.4763 76.5079 35.1856 76.7872 34.9674 76.9806C34.8584 77.0771 34.7679 77.1518 34.7053 77.202C34.6739 77.2271 34.6495 77.2461 34.6333 77.2585L34.6152 77.2723L34.611 77.2754L34.6102 77.276L34.6102 77.276L34.6101 77.2761L34.6101 77.2761L34.4047 77.4274L34.5603 77.6297L35.1913 78.45Z" fill="#83B5B0" stroke="#83B5B0" stroke-width="0.5"/>
<path d="M28.764 101.458H28.514V101.708C28.514 106.704 32.5381 110.728 37.5349 110.728C42.5281 110.728 46.6198 106.707 46.5558 101.706V101.705V101.705V101.704V101.703V101.702V101.702V101.701V101.7V101.7V101.699V101.698V101.697V101.697V101.696V101.695V101.695V101.694V101.693V101.692V101.692V101.691V101.69V101.69V101.689V101.688V101.687V101.687V101.686V101.685V101.685V101.684V101.683V101.683V101.682V101.681V101.68V101.68V101.679V101.678V101.678V101.677V101.676V101.676V101.675V101.674V101.674V101.673V101.672V101.672V101.671V101.67V101.67V101.669V101.668V101.668V101.667V101.666V101.666V101.665V101.664V101.664V101.663V101.662V101.662V101.661V101.66V101.66V101.659V101.658V101.658V101.657V101.656V101.656V101.655V101.655V101.654V101.653V101.653V101.652V101.651V101.651V101.65V101.649V101.649V101.648V101.647V101.647V101.646V101.646V101.645V101.644V101.644V101.643V101.642V101.642V101.641V101.641V101.64V101.639V101.639V101.638V101.637V101.637V101.636V101.636V101.635V101.634V101.634V101.633V101.633V101.632V101.631V101.631V101.63V101.629V101.629V101.628V101.628V101.627V101.626V101.626V101.625V101.625V101.624V101.623V101.623V101.622V101.622V101.621V101.62V101.62V101.619V101.619V101.618V101.617V101.617V101.616V101.616V101.615V101.614V101.614V101.613V101.613V101.612V101.612V101.611V101.61V101.61V101.609V101.609V101.608V101.607V101.607V101.606V101.606V101.605V101.604V101.604V101.603V101.603V101.602V101.602V101.601V101.6V101.6V101.599V101.599V101.598V101.598V101.597V101.596V101.596V101.595V101.595V101.594V101.594V101.593V101.592V101.592V101.591V101.591V101.59V101.59V101.589V101.588V101.588V101.587V101.587V101.586V101.586V101.585V101.584V101.584V101.583V101.583V101.582V101.582V101.581V101.58V101.58V101.579V101.579V101.578V101.578V101.577V101.577V101.576V101.575V101.575V101.574V101.574V101.573V101.573V101.572V101.572V101.571V101.57V101.57V101.569V101.569V101.568V101.568V101.567V101.567V101.566V101.565V101.565V101.564V101.564V101.563V101.563V101.562V101.561V101.561V101.56V101.56V101.559V101.559V101.558V101.558V101.557V101.556V101.556V101.555V101.555V101.554V101.554V101.553V101.553V101.552V101.552V101.551V101.55V101.55V101.549V101.549V101.548V101.548V101.547V101.547V101.546V101.545V101.545V101.544V101.544V101.543V101.543V101.542V101.542V101.541V101.54V101.54V101.539V101.539V101.538V101.538V101.537V101.537V101.536V101.535V101.535V101.534V101.534V101.533V101.533V101.532V101.532V101.531V101.53V101.53V101.529V101.529V101.528V101.528V101.527V101.526V101.526V101.525V101.525V101.524V101.524V101.523V101.523V101.522V101.521V101.521V101.52V101.52V101.519V101.519V101.518V101.517V101.517V101.516V101.516V101.515V101.515V101.514V101.514V101.513V101.512V101.512V101.511V101.511V101.51V101.51V101.509V101.508V101.508V101.507V101.507V101.506V101.506V101.505V101.504V101.504V101.503V101.503V101.502V101.502V101.501V101.5V101.5V101.499V101.499V101.498V101.498V101.497V101.496V101.496V101.495V101.495V101.494V101.493V101.493V101.492V101.492V101.491V101.491V101.49V101.489V101.489V101.488V101.488V101.487V101.486V101.486V101.485V101.485V101.484V101.483V101.483V101.482V101.482V101.481V101.48V101.48V101.479V101.479V101.478V101.477V101.477V101.476V101.476V101.475V101.474V101.474V101.473V101.473V101.472V101.471V101.471V101.47V101.47V101.469V101.468V101.468V101.467V101.467V101.466V101.465V101.465V101.464V101.463V101.463V101.462V101.462V101.461V101.46V101.46V101.459V101.459V101.458V101.457V101.457V101.456V101.455V101.455V101.454V101.453V101.453V101.452V101.452V101.451V101.45V101.45V101.449V101.448V101.448V101.447V101.446V101.446V101.445V101.445V101.444V101.443V101.443V101.442V101.441V101.441V101.44V101.439V101.439V101.438V101.437V101.437V101.436V101.435V101.435V101.434V101.433V101.433V101.432V101.431V101.431V101.43V101.429V101.429V101.428V101.427V101.427V101.426V101.425V101.425V101.424V101.423V101.423V101.422V101.421V101.421V101.42V101.419V101.419V101.418V101.417V101.416V101.416V101.415V101.414V101.414V101.413V101.412V101.412V101.411V101.41V101.409V101.409V101.408V101.407V101.407V101.406V101.405V101.404V101.404V101.403V101.402V101.402V101.401V101.4V101.399V101.399V101.398V101.397V101.397V101.396V101.395V101.394V101.394V101.393V101.392V101.126L46.2902 101.143L45.2806 101.206L45.0462 101.22V101.455V101.456V101.456V101.456V101.457V101.457V101.457V101.458V101.458V101.459V101.459V101.459V101.46V101.46V101.46V101.461V101.461V101.462V101.462V101.462V101.463V101.463V101.464V101.464V101.464V101.465V101.465V101.466V101.466V101.466V101.467V101.467V101.468V101.468V101.469V101.469V101.469V101.47V101.47V101.471V101.471V101.471V101.472V101.472V101.473V101.473V101.474V101.474V101.474V101.475V101.475V101.476V101.476V101.477V101.477V101.478V101.478V101.478V101.479V101.479V101.48V101.48V101.481V101.481V101.482V101.482V101.482V101.483V101.483V101.484V101.484V101.485V101.485V101.486V101.486V101.487V101.487V101.488V101.488V101.488V101.489V101.489V101.49V101.49V101.491V101.491V101.492V101.492V101.493V101.493V101.494V101.494V101.495V101.495V101.496V101.496V101.497V101.497V101.497V101.498V101.498V101.499V101.499V101.5V101.5V101.501V101.501V101.502V101.502V101.503V101.503V101.504V101.504V101.505V101.505V101.506V101.506V101.507V101.507V101.508V101.508V101.509V101.509V101.51V101.51V101.511V101.511V101.512V101.512V101.513V101.513V101.514V101.514V101.515V101.515V101.516V101.516V101.517V101.517V101.518V101.519V101.519V101.52V101.52V101.521V101.521V101.522V101.522V101.523V101.523V101.524V101.524V101.525V101.525V101.526V101.526V101.527V101.527V101.528V101.528V101.529V101.53V101.53V101.531V101.531V101.532V101.532V101.533V101.533V101.534V101.534V101.535V101.535V101.536V101.536V101.537V101.537V101.538V101.539V101.539V101.54V101.54V101.541V101.541V101.542V101.542V101.543V101.543V101.544V101.545V101.545V101.546V101.546V101.547V101.547V101.548V101.548V101.549V101.549V101.55V101.55V101.551V101.552V101.552V101.553V101.553V101.554V101.554V101.555V101.555V101.556V101.557V101.557V101.558V101.558V101.559V101.559V101.56V101.56V101.561V101.561V101.562V101.563V101.563V101.564V101.564V101.565V101.565V101.566V101.566V101.567V101.568V101.568V101.569V101.569V101.57V101.57V101.571V101.571V101.572V101.573V101.573V101.574V101.574V101.575V101.575V101.576V101.576V101.577V101.578V101.578V101.579V101.579V101.58V101.58V101.581V101.581V101.582V101.582V101.583V101.584V101.584V101.585V101.585V101.586V101.586V101.587V101.587V101.588V101.589V101.589V101.59V101.59V101.591V101.591V101.592V101.592V101.593V101.594V101.594V101.595V101.595V101.596V101.596V101.597V101.597V101.598V101.599V101.599V101.6V101.6V101.601V101.601V101.602V101.602V101.603V101.604V101.604V101.605V101.605V101.606V101.606V101.607V101.607V101.608V101.608V101.609V101.61V101.61V101.611V101.611V101.612V101.612V101.613V101.613V101.614V101.614V101.615V101.616V101.616V101.617V101.617V101.618V101.618V101.619V101.619V101.62V101.62V101.621V101.622V101.622V101.623V101.623V101.624V101.624V101.625V101.625V101.626V101.626V101.627V101.627V101.628V101.628V101.629V101.63V101.63V101.631V101.631V101.632V101.632V101.633V101.633V101.634V101.634V101.635V101.635V101.636V101.636V101.637V101.637V101.638V101.639V101.639V101.64V101.64V101.641V101.641V101.642V101.642V101.643V101.643V101.644V101.644V101.645V101.645V101.646V101.646V101.647V101.647V101.648V101.648V101.649V101.649V101.65V101.65V101.651V101.651V101.652V101.652V101.653V101.653V101.654V101.654V101.655V101.655V101.656V101.656V101.657V101.657V101.658V101.658V101.659V101.659V101.66V101.66V101.661V101.661V101.662V101.662V101.663V101.663V101.664V101.664V101.665V101.665V101.666V101.666V101.667V101.667V101.668V101.668V101.669V101.669V101.67V101.67V101.671V101.671V101.672V101.672V101.672V101.673V101.673V101.674V101.674V101.675V101.675V101.676V101.676V101.677V101.677V101.678V101.678V101.678V101.679V101.679V101.68V101.68V101.681V101.681V101.682V101.682V101.683V101.683V101.683V101.684V101.684V101.685V101.685V101.686V101.686V101.687V101.687V101.687V101.688V101.688V101.689V101.689V101.69V101.69V101.69V101.691V101.691V101.692V101.692V101.693V101.693V101.693V101.694V101.694V101.695V101.695V101.695V101.696V101.696V101.697V101.697V101.698V101.698V101.698V101.699V101.699V101.7V101.7V101.7V101.701V101.701V101.701V101.702V101.702V101.703V101.703V101.703V101.704V101.704V101.705V101.705V101.705V101.706V101.706V101.706V101.707V101.707V101.708C45.0462 105.86 41.6876 109.219 37.5349 109.219C33.3821 109.219 30.0236 105.86 30.0236 101.708V101.458H29.7736H28.764Z" fill="#83B5B0" stroke="#83B5B0" stroke-width="0.5"/>
<path d="M29.8366 101.958H30.0866V101.708C30.0866 99.7664 29.552 98.0422 28.5014 96.5844C27.452 95.1284 25.8976 93.9513 23.8775 93.0855L23.8769 93.0853C20.8715 91.8064 17.9965 91.6771 17.8476 91.6771H17.6128L17.5981 91.9115L17.535 92.9211L17.5192 93.1749L17.7731 93.1865L17.7732 93.1865L17.7733 93.1865L17.7745 93.1865L17.7797 93.1868L17.8019 93.188C17.8219 93.1892 17.852 93.191 17.8915 93.1939C17.9706 93.1995 18.0875 93.2089 18.2367 93.2239C18.5353 93.254 18.9631 93.3064 19.4769 93.396C20.5057 93.5752 21.8736 93.9021 23.2382 94.4913L23.2382 94.4913L23.2403 94.4922C25.0073 95.2362 26.3231 96.2209 27.1973 97.422C28.07 98.6211 28.5139 100.051 28.5139 101.708V101.958H28.7639H29.8366Z" fill="#83B5B0" stroke="#83B5B0" stroke-width="0.5"/>
<path d="M45.801 102.21H46.051V101.96V100.95V100.7H45.801C40.9075 100.7 38.1496 99.743 36.4375 98.3657C34.7326 96.9942 34.025 95.1789 33.3009 93.3213L33.2886 93.2899C32.723 91.7502 32.108 90.1377 30.8653 88.895C29.6473 87.677 27.8535 86.838 24.9919 86.7025C25.0877 85.5777 25.4551 84.8509 26.0974 84.2359C26.8073 83.5562 27.858 83.0055 29.3213 82.242L29.3213 82.242L29.3242 82.2405C29.4685 82.1628 29.6164 82.0835 29.7678 82.0024C31.3347 81.1627 33.2772 80.1217 35.5353 78.5006L35.7452 78.3499L35.5876 78.145L34.9566 77.3247L34.8099 77.134L34.6137 77.2734C32.3071 78.9122 30.3536 79.9636 28.7431 80.8304C28.6897 80.8591 28.6366 80.8876 28.584 80.916C27.0184 81.7301 25.7145 82.4114 24.8124 83.3628C23.8921 84.3332 23.4029 85.5667 23.4029 87.447V87.9518V88.2018H23.6529H24.1577C26.958 88.2018 28.5594 88.8543 29.6099 89.8452C30.6736 90.8485 31.208 92.2264 31.8121 93.7842L31.8382 93.8517C32.5854 95.7824 33.3976 97.8811 35.3572 99.4873C37.3435 101.115 40.4696 102.21 45.801 102.21Z" fill="#83B5B0" stroke="#83B5B0" stroke-width="0.5"/>
<path d="M45.1093 101.455V101.705H45.3593H46.3689H46.432H46.682V101.455V97.5429V97.2929H46.432H45.9272C45.9274 97.2929 45.9269 97.2929 45.9255 97.2929C45.916 97.2925 45.866 97.2907 45.7807 97.2842C45.6864 97.277 45.5534 97.2644 45.3935 97.2429C45.073 97.1999 44.6486 97.1216 44.2133 96.9816C43.432 96.7302 42.6813 96.3026 42.3628 95.5844H46.432H46.682V95.3344V92.3687C49.6496 91.4998 50.8004 89.5582 51.0773 88.8742C51.2339 88.5531 51.2323 88.1595 51.0726 87.8399C50.9115 87.5178 50.6037 87.2972 50.3298 87.1602L50.3199 87.1553L50.3096 87.1512C46.2734 85.5612 44.3529 82.587 42.4154 79.5863C42.3943 79.5537 42.3732 79.5211 42.3522 79.4885C41.0949 77.4768 39.8089 75.477 37.9957 74.1818L37.7993 74.0416L37.6522 74.2328L37.0212 75.0531L36.8609 75.2615L37.0771 75.4111C38.6016 76.4665 39.6829 78.1448 40.8894 80.0174C40.9419 80.0989 40.9947 80.1807 41.0477 80.2629L41.0477 80.263C41.082 80.316 41.1163 80.3692 41.1507 80.4225C43.0398 83.3492 45.178 86.6618 49.4861 88.4569C49.1045 89.1052 48.0701 90.4565 45.6901 90.9875L45.3182 91.0495L45.1093 91.0843V91.2961V94.0118H40.9423H40.6923V94.2618V94.7666C40.6923 96.1626 41.4139 97.117 42.3504 97.7358C43.2034 98.2994 44.2419 98.5917 45.1093 98.7107V101.455Z" fill="#83B5B0" stroke="#83B5B0" stroke-width="0.5"/>
<path d="M19.5802 171.229L19.6713 171.412L19.8682 171.359L20.8147 171.107L21.0715 171.038L20.9874 170.786C20.9875 170.786 20.9863 170.783 20.9833 170.773L20.9721 170.736C20.9627 170.705 20.9496 170.661 20.9329 170.604C20.8996 170.49 20.8523 170.325 20.793 170.112C20.6742 169.685 20.5072 169.062 20.3066 168.259C19.9054 166.652 19.3702 164.322 18.819 161.386C17.7167 155.512 16.5512 147.212 16.2677 137.415L16.2606 137.172H16.0178H15.0082H14.7509L14.7583 137.429C15.0427 147.352 16.2276 155.757 17.3496 161.699C17.9106 164.67 18.456 167.025 18.8653 168.647C19.07 169.458 19.2407 170.085 19.3624 170.514C19.4232 170.729 19.4719 170.894 19.5065 171.009C19.5238 171.066 19.5377 171.11 19.5481 171.143C19.5532 171.159 19.5577 171.172 19.5615 171.183C19.5624 171.186 19.5701 171.209 19.5802 171.229Z" fill="#83B5B0" stroke="#83B5B0" stroke-width="0.5"/>
<path d="M33.812 138.429H34.062V138.179C34.062 132.743 29.6602 128.337 24.2809 128.401L24.0339 128.404V128.651V129.661V129.911H24.2839C28.8164 129.911 32.5524 133.586 32.5524 138.179V138.429H32.8024H33.812Z" fill="#83B5B0" stroke="#83B5B0" stroke-width="0.5"/>
<path d="M33.9989 138.179V137.929H33.7489H32.7393H32.4893V138.179V170.991V171.241H32.7393H33.7489H33.9989V170.991V138.179Z" fill="#83B5B0" stroke="#83B5B0" stroke-width="0.5"/>
<path d="M31.6968 124.276L31.9665 124.388L32.0357 124.104L33.8656 116.595L33.9244 116.354L33.6834 116.293L32.6737 116.041L32.4284 115.98L32.3699 116.226L30.9234 122.313L14.9781 115.674L14.7441 115.577L14.6499 115.812L14.2713 116.759L14.1797 116.988L14.4074 117.082L31.6968 124.276Z" fill="#83B5B0" stroke="#83B5B0" stroke-width="0.5"/>
<path d="M36.5278 120.943L36.7728 121.004L36.8315 120.759L38.2197 114.954L38.2697 114.745L38.0708 114.664L32.3287 112.329L32.0906 112.232L32.0004 112.473L31.6218 113.482L31.5357 113.712L31.7636 113.803L36.4833 115.678L35.3359 120.389L35.2771 120.63L35.5182 120.691L36.5278 120.943Z" fill="#83B5B0" stroke="#83B5B0" stroke-width="0.5"/>
<path d="M178.061 126.821V127.071H178.311C185.389 127.071 191.182 121.281 191.118 114.262L191.116 114.015H190.868H189.858H189.608V114.265C189.608 120.5 184.546 125.562 178.311 125.562H178.061V125.812V126.821Z" fill="#83B5B0" stroke="#83B5B0" stroke-width="0.5"/>
<path d="M146.635 170.926H146.885V170.676V150.61V150.507L146.812 150.433L146.688 150.31C142.432 145.742 142.68 138.582 147.247 134.324L147.248 134.323C150.397 131.365 152.624 127.993 153.985 124.984C154.666 123.479 155.132 122.062 155.387 120.828C155.642 119.599 155.692 118.535 155.524 117.746L155.473 117.507L155.233 117.552L154.224 117.742L153.973 117.789L154.025 118.039C154.141 118.588 154.105 119.448 153.875 120.536C153.647 121.617 153.231 122.904 152.606 124.298C151.357 127.086 149.277 130.291 146.212 133.137L146.211 133.138C141.151 137.878 140.745 145.807 145.375 151.021V170.676V170.926H145.625H146.635Z" fill="#83B5B0" stroke="#83B5B0" stroke-width="0.5"/>
<path d="M190.931 114.451H191.181V114.201C191.181 109.998 190.272 106.973 188.901 104.55C187.533 102.135 185.711 100.33 183.916 98.5667C183.87 98.5181 183.824 98.4694 183.778 98.4208C182.12 96.6722 180.529 94.993 179.335 92.8089C178.111 90.5698 177.299 87.788 177.299 83.8503C177.299 73.0527 168.549 64.234 157.75 64.2286C157.044 64.1709 156.604 63.7455 155.9 63.0424C155.363 62.4729 154.724 61.8167 153.764 61.3078C152.8 60.7969 151.528 60.4426 149.727 60.4426C144.982 60.4426 141.147 64.2775 141.147 69.0218C141.147 73.7662 144.982 77.601 149.727 77.601C150.824 77.601 151.851 77.3462 152.864 76.97H152.882H152.941L152.993 76.9436C154.376 76.2524 155.089 75.9604 156.226 75.9604C159.369 75.9604 161.97 78.5618 161.97 81.7049C161.97 83.275 161.306 84.7875 160.156 85.8773L160.15 85.8823L160.145 85.8875C159.094 87.0047 158.5 88.4535 158.5 89.971H158.5L158.5 89.9819C158.566 91.4922 159.158 92.9407 160.277 94.06C161.397 95.1801 162.849 95.7738 164.429 95.7738C166.009 95.7738 167.461 95.1801 168.581 94.06L168.588 94.0532L168.594 94.0459C169.306 93.215 170.059 92.8712 171.054 92.8712C172.809 92.8712 174.275 94.3368 174.275 96.0917V96.3417H174.525H175.598H175.848V96.0917C175.848 93.4927 173.717 91.3616 171.118 91.3616C169.721 91.3616 168.52 91.8969 167.528 93.0177C166.694 93.8488 165.625 94.2642 164.492 94.2642C163.357 94.2642 162.285 93.847 161.451 93.0124L161.451 93.0123L161.448 93.0093C159.715 91.3362 159.661 88.7219 161.323 87.0579C162.757 85.6876 163.606 83.794 163.606 81.768C163.606 77.7809 160.339 74.5139 156.352 74.5139C154.845 74.5139 153.918 74.9128 152.466 75.67C151.609 75.9747 150.759 76.1545 149.853 76.1545C145.953 76.1545 142.783 72.9853 142.783 69.0849C142.783 65.1846 145.953 62.0153 149.853 62.0153C151.365 62.0153 152.396 62.3079 153.168 62.7124C153.943 63.1186 154.471 63.645 154.976 64.1506C155.016 64.19 155.055 64.2296 155.095 64.2694C155.803 64.9812 156.553 65.736 157.854 65.801L157.854 65.8013H157.867H157.93C167.888 65.8013 175.979 73.8924 175.979 83.8503C175.979 88.0846 176.871 91.1395 178.21 93.5853C179.546 96.0253 181.321 97.8462 183.054 99.6112C184.792 101.38 186.44 103.077 187.659 105.306C188.875 107.529 189.671 110.295 189.671 114.201V114.451H189.921H190.931Z" fill="#83B5B0" stroke="#83B5B0" stroke-width="0.5"/>
</svg>
