<svg width="182" height="167" viewBox="0 0 182 167" fill="none" xmlns="http://www.w3.org/2000/svg">
<path d="M38.0592 166.237H38.3092V165.987V165.006V164.756H38.0592C20.7717 164.756 6.6493 150.694 6.6493 133.346V133.096H6.3993H5.4176H5.1676V133.346C5.1676 151.461 19.882 166.237 38.0592 166.237Z" fill="#83B5B0" stroke="#83B5B0" stroke-width="0.5"/>
<path d="M5.9085 125.865H6.1585V125.615V124.633V124.383H5.9085C3.8991 124.383 2.2317 122.716 2.2317 120.706V120.456H1.9817H1H0.75V120.706C0.75 123.544 3.07076 125.865 5.9085 125.865Z" fill="#83B5B0" stroke="#83B5B0" stroke-width="0.5"/>
<path d="M44.1902 125.615V125.865H44.4402C47.283 125.865 49.5343 123.54 49.5986 120.712L49.6044 120.456H49.3487H48.367H48.117V120.706C48.117 122.716 46.4496 124.383 44.4402 124.383H44.1902V124.633V125.615Z" fill="#83B5B0" stroke="#83B5B0" stroke-width="0.5"/>
<path d="M6.6493 125.124V124.874H6.3993H5.4176H5.1676V125.124V133.346V133.596H5.4176H6.3993H6.6493V133.346V125.124Z" fill="#83B5B0" stroke="#83B5B0" stroke-width="0.5"/>
<path d="M45.4265 125.124V124.874H45.1765H44.1948H43.9448V125.124V131.689V131.939H44.1948H45.1765H45.4265V131.689V125.124Z" fill="#83B5B0" stroke="#83B5B0" stroke-width="0.5"/>
<path d="M49.5374 97.575V97.325H49.2874H48.3057H48.0557V97.575V120.706V120.956H48.3057H49.2874H49.5374V120.706V97.575Z" fill="#83B5B0" stroke="#83B5B0" stroke-width="0.5"/>
<path d="M44.9357 124.572V124.322H44.6857H5.90851H5.65851V124.572V125.553V125.803H5.90851H44.6857H44.9357V125.553V124.572Z" fill="#83B5B0" stroke="#83B5B0" stroke-width="0.5"/>
<path d="M44.9357 131.137V130.887H44.6857H5.90851H5.65851V131.137V132.118V132.368H5.90851H44.6857H44.9357V132.118V131.137Z" fill="#83B5B0" stroke="#83B5B0" stroke-width="0.5"/>
<path d="M1.9817 120.956H2.2317V120.706C2.2317 99.161 8.65801 84.0507 14.0979 75.188L14.0991 75.186C17.0033 70.3558 19.9374 66.7803 22.1514 64.406C23.2583 63.2188 24.1852 62.3321 24.8382 61.7391C25.1647 61.4426 25.4227 61.2194 25.6007 61.0688C25.6897 60.9936 25.7588 60.9363 25.8066 60.8969L25.8628 60.8506L25.865 60.8488C25.8728 60.8424 25.8917 60.8269 25.9034 60.8152L26.0586 60.66L25.9247 60.486L25.3112 59.6884L25.1606 59.4926L24.963 59.6408C24.6966 59.8406 18.7829 64.4652 12.8121 74.314C9.30265 80.1015 6.53336 86.5024 4.50309 93.3315L4.50262 93.3331C2.04143 101.824 0.75 111.051 0.75 120.706V120.956H1H1.9817Z" fill="#83B5B0" stroke="#83B5B0" stroke-width="0.5"/>
<path d="M66.1283 102.67L66.1279 102.67C54.8616 101.192 43.4177 97.0685 32.1038 90.4277L31.8907 90.3026L32.0133 90.0881L32.5041 89.2291L32.6293 89.01L32.8472 89.1372C58.1249 103.888 79.1024 103.086 92.3 99.8477L92.3003 99.8476C104.691 96.824 112.595 91.0981 114.558 89.5907L110.768 82.4187C108.672 83.1289 101.446 85.3882 91.6385 85.9826C84.8059 86.4135 78.0963 85.921 71.6943 84.6283L71.693 84.628C63.6894 82.9657 56.1151 80.0102 49.1559 75.6992L66.1283 102.67ZM66.1283 102.67C69.4499 103.101 72.6513 103.347 75.916 103.347C81.5797 103.347 87.1843 102.67 92.6063 101.191C99.9021 99.4056 105.721 96.6965 109.724 94.4254C111.726 93.2896 113.275 92.263 114.328 91.5156C114.854 91.1419 115.257 90.838 115.531 90.625C115.668 90.5185 115.772 90.4347 115.844 90.3762C115.893 90.3364 115.934 90.3022 115.958 90.2814L116.261 90.0392L116.422 89.9102L116.326 89.7274L111.54 80.6467L111.432 80.4426L111.22 80.5335L110.791 80.7175L110.746 80.7365L110.743 80.7399C110.73 80.7452 110.714 80.7518 110.694 80.7598C110.633 80.7842 110.542 80.8191 110.421 80.8633C110.179 80.9515 109.823 81.0756 109.362 81.2253C108.438 81.5246 107.092 81.9256 105.391 82.3459C101.99 83.1866 97.1739 84.1041 91.4858 84.4405L91.4846 84.4405C80.9639 85.1134 65.2521 83.8893 49.9097 74.415C49.9097 74.4149 49.9097 74.4149 49.9096 74.4149L25.7967 59.5054L25.5766 59.3693L25.4482 59.594L24.9573 60.453L24.8375 60.6626L25.0429 60.7896L49.1558 75.6991L66.1283 102.67Z" fill="#83B5B0" stroke="#83B5B0" stroke-width="0.5"/>
<path d="M37.8092 165.987V166.237H38.0592C47.6354 166.237 59.4009 162.1 73.038 153.93C83.9147 147.417 93.1297 139.983 97.674 136.176C99.0704 135.012 101.049 134.78 102.678 135.594C102.678 135.594 102.678 135.594 102.678 135.594L148.634 158.603L148.854 158.713L148.968 158.494L155.778 145.364L155.884 145.16L155.69 145.037L110.779 116.631C110.779 116.63 110.779 116.63 110.779 116.63C106.262 113.722 100.943 112.053 95.5644 111.744V111.744L95.5615 111.744C90.1833 111.497 84.7434 112.609 79.9204 114.958L38.7534 133.67L38.5235 133.775L38.6303 134.004L39.0598 134.924L39.1645 135.148L39.3898 135.046L80.5599 116.332L80.5599 116.332L80.5659 116.329C89.9381 111.765 101.197 112.313 110.019 117.911L110.019 117.911L154.001 145.705L148.27 156.696L103.331 134.226C101.156 133.138 98.5318 133.458 96.676 135.058C92.5702 138.551 83.3787 145.98 72.474 152.535C61.5594 159.096 48.9699 164.755 38.0592 164.755H37.8092V165.005V165.987Z" fill="#83B5B0" stroke="#83B5B0" stroke-width="0.5"/>
<path d="M154.339 146.619L154.121 146.498L153.999 146.716L153.523 147.574L153.401 147.793L153.62 147.914L161.719 152.412L161.938 152.534L162.059 152.315L162.536 151.457L162.657 151.238L162.438 151.117L154.339 146.619Z" fill="#83B5B0" stroke="#83B5B0" stroke-width="0.5"/>
<path d="M161.724 151.34L161.498 151.233L161.391 151.459L157.491 159.659L157.384 159.885L157.61 159.993L158.496 160.414L158.722 160.522L158.829 160.296L162.729 152.095L162.836 151.869L162.61 151.762L161.724 151.34Z" fill="#83B5B0" stroke="#83B5B0" stroke-width="0.5"/>
<path d="M176.569 141.197L176.346 141.085L176.233 141.308L165.212 163.1L165.099 163.323L165.322 163.436L166.198 163.879L166.422 163.992L166.534 163.769L177.555 141.976L177.668 141.753L177.445 141.64L176.569 141.197Z" fill="#83B5B0" stroke="#83B5B0" stroke-width="0.5"/>
<path d="M169.286 166.508L169.4 166.285L181.303 142.97L181.412 142.757L181.205 142.639L180.778 142.395C180.777 142.395 180.777 142.394 180.777 142.394C178.655 141.147 175.268 139.951 171.435 141.145L171.435 141.145C167.415 142.401 163.998 145.906 161.283 151.521L161.173 151.749L161.402 151.856L162.323 152.286L162.544 152.389L162.652 152.17C165.279 146.857 168.366 143.618 171.949 142.543L171.949 142.543L171.955 142.541C174.936 141.567 177.591 142.352 179.456 143.273L168.639 164.546L150.026 154.966L149.801 154.85L149.688 155.077L149.259 155.936L149.148 156.157L149.368 156.27L169.063 166.394L169.286 166.508Z" fill="#83B5B0" stroke="#83B5B0" stroke-width="0.5"/>
<path d="M152.015 143.573L152.232 143.675L152.343 143.462L155.84 136.713L155.945 136.509L155.752 136.386L133.97 122.581L133.76 122.448L133.626 122.657L133.074 123.516L132.937 123.728L133.151 123.863L154.001 136.993L150.978 142.802L150.858 143.033L151.094 143.144L152.015 143.573Z" fill="#83B5B0" stroke="#83B5B0" stroke-width="0.5"/>
<path d="M154.354 137.96L154.135 137.838L154.014 138.057L153.537 138.915L153.416 139.134L153.634 139.255L161.734 143.753L161.952 143.874L162.073 143.656L162.55 142.798L162.671 142.579L162.453 142.458L154.354 137.96Z" fill="#83B5B0" stroke="#83B5B0" stroke-width="0.5"/>
<path d="M161.724 142.683L161.498 142.576L161.391 142.802L158.124 149.673L158.017 149.899L158.243 150.006L159.129 150.427L159.355 150.535L159.462 150.309L162.729 143.438L162.837 143.212L162.611 143.105L161.724 142.683Z" fill="#83B5B0" stroke="#83B5B0" stroke-width="0.5"/>
<path d="M162.384 143.512L162.607 143.616L162.714 143.395C165.278 138.145 168.425 134.908 172.007 133.893L172.007 133.893L172.016 133.89C174.997 132.916 177.652 133.701 179.516 134.621L176.134 141.208L176.018 141.432L176.245 141.545L177.104 141.975L177.325 142.086L177.438 141.865L181.365 134.196L181.473 133.983L181.266 133.865L180.839 133.621C180.839 133.621 180.838 133.62 180.838 133.62C178.717 132.373 175.329 131.177 171.496 132.371L171.496 132.371C167.477 133.627 164.059 137.132 161.344 142.747L161.234 142.975L161.464 143.082L162.384 143.512Z" fill="#83B5B0" stroke="#83B5B0" stroke-width="0.5"/>
<path d="M111.772 82.8573L111.965 83.0176L112.125 82.825L124.411 68.0325L132.766 65.3278L138.061 68.3364C138.177 68.4163 138.262 68.5338 138.311 68.6579C138.309 68.839 138.298 68.9874 138.23 69.0896C138.049 69.3619 137.753 69.4343 137.507 69.3114L132.476 66.7958L132.382 66.749L132.283 66.7828L127.436 68.4395L127.436 68.4391L127.424 68.4439C127.235 68.5195 127.067 68.6396 126.956 68.8058C126.846 68.9699 126.802 69.1666 126.838 69.3758C126.85 69.8051 127.197 70.1469 127.628 70.1531L132.453 70.5753L138.04 74.8869L138.047 74.8921L138.054 74.8969C138.283 75.0497 138.351 75.4303 138.176 75.7051C137.939 75.9811 137.586 76.0583 137.279 75.8862L136.25 75.2205L132.147 72.0971L132.088 72.0524L132.015 72.0468L127.167 71.6786L126.915 71.6594L126.899 71.9123L126.838 72.894L126.822 73.139L127.067 73.1588L131.535 73.5211L135.404 76.4228L135.411 76.428L135.419 76.4327L136.462 77.1077L136.462 77.1081C137.435 77.7331 138.754 77.4582 139.382 76.4843C140.011 75.5726 139.795 74.322 138.897 73.6318L138.897 73.6317L133.068 69.1527L133.01 69.1081L132.938 69.1019L130.565 68.8973L132.223 68.3328L136.792 70.6176L136.799 70.6209L136.806 70.6238C137.762 71.0338 138.882 70.7673 139.446 69.8539C139.736 69.4164 139.798 68.8518 139.662 68.3086C139.521 67.7443 139.167 67.3231 138.685 67.0478L138.684 67.0471L132.916 63.7952L132.821 63.7416L132.717 63.7748L123.514 66.7199L123.443 66.7424L123.397 66.7994L111.003 81.893L110.845 82.0849L111.036 82.2438L111.772 82.8573Z" fill="#83B5B0" stroke="#83B5B0" stroke-width="0.5"/>
<path d="M133.824 57.1673L134.031 57.3002L134.167 57.0956C134.415 56.7232 135.538 54.9398 136.603 53.2152C137.136 52.352 137.657 51.5014 138.048 50.847C138.243 50.52 138.407 50.2406 138.525 50.0326C138.583 49.9289 138.631 49.8409 138.666 49.7728C138.684 49.7389 138.699 49.7076 138.711 49.6805C138.716 49.6685 138.724 49.6509 138.731 49.6305C139.058 49.0263 139.128 48.2832 138.854 47.6588C138.432 46.545 137.187 46.0093 136.036 46.3479L136.036 46.3477L136.026 46.3511L130.627 48.1918L130.617 48.1949L130.609 48.1987L129.322 48.7502C128.154 49.2319 127.602 50.5403 128.082 51.7105C128.502 52.8265 129.748 53.3635 130.9 53.0246L130.9 53.0247L130.907 53.0226L134.895 51.7342L135.135 51.6566L135.055 51.4172L134.748 50.4969L134.67 50.2619L134.434 50.338L130.446 51.6265L130.446 51.6262L130.435 51.6303C130.265 51.694 130.061 51.6767 129.873 51.5857C129.684 51.4945 129.535 51.3401 129.469 51.1631L129.464 51.1508L129.458 51.139C129.285 50.7932 129.448 50.3253 129.888 50.1294L129.888 50.1294L129.889 50.129L131.105 49.5821L136.453 47.8195H136.475H136.515L136.554 47.8066C136.97 47.6678 137.389 47.8978 137.529 48.2708L137.529 48.2708L137.531 48.2759C137.617 48.4909 137.584 48.7194 137.474 48.9984L137.466 49.0136C137.458 49.0272 137.448 49.0448 137.435 49.0667C137.409 49.1105 137.373 49.1688 137.329 49.2408C137.24 49.3847 137.118 49.5805 136.969 49.818C136.672 50.2931 136.267 50.9331 135.811 51.654C135.526 52.1043 135.221 52.5862 134.908 53.079C134.221 54.1636 133.5 55.301 132.889 56.2714L132.756 56.4811L132.965 56.6151L133.824 57.1673Z" fill="#83B5B0" stroke="#83B5B0" stroke-width="0.5"/>
<path d="M129.768 45.2469L129.758 45.25L129.75 45.2537L128.463 45.8052C127.295 46.2871 126.743 47.596 127.223 48.7665C127.57 49.6662 128.465 50.2125 129.357 50.2125C129.646 50.2125 129.868 50.14 130.021 50.0634L130.215 49.9664L130.147 49.7607L129.84 48.8404L129.758 48.5943L129.515 48.6854C129.345 48.7491 129.141 48.7318 128.952 48.6407C128.764 48.5496 128.615 48.3952 128.548 48.2181L128.544 48.2058L128.538 48.1941C128.365 47.8482 128.527 47.3803 128.968 47.1845L128.968 47.1845L128.969 47.184L130.184 46.6372L135.533 44.8745H135.554H135.595L135.633 44.8617C136.05 44.7228 136.469 44.9528 136.609 45.3259L136.613 45.3381L136.619 45.3499C136.791 45.693 136.632 46.1563 136.199 46.3548L135.475 46.5962L135.224 46.68L135.322 46.9262L135.69 47.8465L135.785 48.082L136.019 47.9844L136.754 47.6781C136.754 47.678 136.754 47.6779 136.754 47.6779C137.923 47.1965 138.476 45.8877 137.996 44.7171C137.575 43.6011 136.329 43.064 135.177 43.403L135.177 43.4028L135.167 43.4062L129.768 45.2469Z" fill="#83B5B0" stroke="#83B5B0" stroke-width="0.5"/>
<path d="M129.215 42.1175L129.206 42.1206L129.198 42.1243L127.911 42.6758C126.743 43.1577 126.191 44.4667 126.671 45.6371C127.018 46.5368 127.913 47.0831 128.805 47.0831C128.81 47.0831 128.815 47.0831 128.82 47.0831C128.998 47.0833 129.249 47.0834 129.496 46.9184L129.655 46.8125L129.595 46.6313L129.288 45.711L129.206 45.4649L128.963 45.556C128.793 45.6197 128.588 45.6024 128.4 45.5113C128.212 45.4202 128.063 45.2658 127.996 45.0887L127.992 45.0764L127.986 45.0647C127.813 44.7188 127.975 44.2509 128.416 44.0551L128.416 44.0551L128.417 44.0546L129.632 43.5078L134.981 41.7451H135.002H135.043L135.081 41.7323C135.498 41.5934 135.917 41.8234 136.057 42.1965L136.061 42.2087L136.067 42.2205C136.15 42.3868 136.145 42.5838 136.062 42.7754C135.979 42.9636 135.827 43.1302 135.641 43.2273L134.739 43.5281L134.488 43.612L134.586 43.8581L134.954 44.7785L135.047 45.0106L135.279 44.9178L136.199 44.5496L136.199 44.5496L136.202 44.5487C137.37 44.0675 137.924 42.7585 137.444 41.5877C137.023 40.4717 135.777 39.9346 134.625 40.2736L134.625 40.2734L134.615 40.2768L129.215 42.1175Z" fill="#83B5B0" stroke="#83B5B0" stroke-width="0.5"/>
<path d="M134.682 79.3166L134.682 79.3167L134.689 79.3211C135.018 79.5184 135.37 79.6635 135.8 79.6635C136.498 79.6635 137.181 79.3152 137.654 78.708L137.654 78.7082L137.662 78.6968C138.293 77.7847 138.078 76.5318 137.179 75.8407L136.981 75.6883L136.829 75.8864L136.215 76.6841L136.052 76.8961L136.275 77.0445C136.504 77.1972 136.571 77.5778 136.397 77.8527C136.16 78.1286 135.807 78.2059 135.5 78.0338L134.47 77.3674L131.347 75.0408L131.289 74.9975L131.217 74.992L127.229 74.6852L126.976 74.6657L126.96 74.9189L126.899 75.9006L126.884 76.1453L127.128 76.1653L130.798 76.4661L133.623 78.6302L133.631 78.6363L133.639 78.6416L134.682 79.3166Z" fill="#83B5B0" stroke="#83B5B0" stroke-width="0.5"/>
<path d="M114.816 88.7858L114.991 88.9769L115.176 88.7949L119.472 84.5587C120.633 84.3955 125.314 83.4076 127.959 78.9409L129.693 79.1035L132.151 80.9618L132.152 80.9627L133.194 81.7595L133.409 81.9242L133.556 81.6961L134.108 80.8371L134.243 80.6274L134.034 80.492L132.999 79.8228L130.308 77.743L130.25 77.698L130.176 77.6918L127.292 77.4463L127.108 77.4306L127.039 77.6026L126.922 77.895C125.637 80.2184 123.697 81.5332 122.061 82.2685C121.242 82.6368 120.501 82.8584 119.963 82.9879C119.694 83.0525 119.476 83.094 119.325 83.1193C119.249 83.1319 119.19 83.1404 119.15 83.1456C119.13 83.1483 119.115 83.1501 119.105 83.1511C119.103 83.1513 119.102 83.1515 119.101 83.1516H118.927H118.825L118.752 83.2224L114.151 87.7014L113.977 87.8707L114.141 88.0495L114.816 88.7858Z" fill="#83B5B0" stroke="#83B5B0" stroke-width="0.5"/>
<path d="M133.197 81.303L133.057 81.5199L133.278 81.6526C133.607 81.8499 133.959 81.995 134.389 81.995C135.086 81.995 135.77 81.6467 136.243 81.0395L136.243 81.0397L136.251 81.0283C136.882 80.1162 136.667 78.8633 135.768 78.1722L135.57 78.0198L135.418 78.2179L134.804 79.0156L134.641 79.2276L134.864 79.376C135.093 79.5287 135.16 79.9093 134.985 80.1842C134.747 80.4618 134.392 80.5383 134.083 80.3621L133.877 80.2444L133.749 80.444L133.197 81.303Z" fill="#83B5B0" stroke="#83B5B0" stroke-width="0.5"/>
<path d="M29.8847 38.5185L30.0325 38.7106L30.2291 38.5688C32.6873 36.7951 34.6248 34.3743 36.0151 32.1962C37.3083 30.1702 38.1369 28.3401 38.4743 27.4102C39.6447 27.5517 42.5177 27.9088 45.8094 28.685C49.3131 29.5112 53.2642 30.8064 56.1394 32.8039L56.345 32.9467L56.4876 32.7408L57.0398 31.9432L57.1825 31.7371L56.9759 31.595C53.5911 29.2659 48.9813 27.8618 45.1761 27.0316C41.744 26.2828 38.9391 25.9955 38.2419 25.9241C38.1651 25.9163 38.1138 25.911 38.0902 25.9081L38.0747 25.9061H38.0592H37.691H37.5109L37.4539 26.0771L37.3387 26.4225C37.3353 26.4293 37.3319 26.4363 37.3288 26.4427C37.3201 26.4608 37.309 26.485 37.2961 26.5135C37.2858 26.5364 37.2719 26.5673 37.2558 26.603C37.2353 26.6486 37.2113 26.7022 37.1863 26.7574C37.0921 26.9656 36.9553 27.2638 36.7768 27.6317C36.4197 28.3678 35.896 29.3828 35.2144 30.5138C33.8487 32.7797 31.8595 35.4934 29.3208 37.3673L29.1157 37.5187L29.2711 37.7208L29.8847 38.5185Z" fill="#83B5B0" stroke="#83B5B0" stroke-width="0.5"/>
<path d="M45.0363 46.617L45.155 46.4454L45.7011 45.6567L45.8258 45.4384L45.0363 46.617ZM45.0363 46.617L45.1838 46.7645C45.2048 46.7855 45.2306 46.8038 45.2424 46.8122C45.26 46.8247 45.2818 46.8392 45.3069 46.8553C45.3573 46.8877 45.4254 46.9288 45.5088 46.9755C45.6755 47.069 45.9068 47.1865 46.1853 47.3019C46.7399 47.5317 47.4946 47.7581 48.3057 47.7581C48.8937 47.7581 49.5387 47.6277 50.1779 47.3721L50.1875 47.3682L50.1968 47.3636C50.9319 46.996 51.2195 46.1221 50.9333 45.3971C50.93 45.3873 50.9253 45.3738 50.9193 45.3568C50.7855 44.9731 50.0204 42.7795 49.913 40.0511C49.7995 37.1678 50.4214 33.7277 53.2582 31.1896L53.4468 31.0208L53.2758 30.8343L52.6009 30.098L52.4344 29.9164L52.2503 30.0802C49.673 32.3747 48.6425 35.4193 48.4322 38.3327C48.2224 41.2388 48.8264 44.033 49.5422 45.8729C49.5466 45.8894 49.5456 45.9112 49.5316 45.9391C49.5242 45.954 49.5142 45.9677 49.5036 45.9787C49.4926 45.9901 49.4843 45.995 49.4824 45.996L49.4824 45.996L49.4791 45.9977C48.7348 46.3836 47.891 46.2943 47.2043 46.0876C46.8645 45.9853 46.573 45.857 46.3665 45.7542C46.2634 45.7029 46.1821 45.6583 46.1273 45.6268C46.0998 45.6111 46.079 45.5988 46.0655 45.5905L46.0506 45.5814L46.0474 45.5794L46.047 45.5792L46.0469 45.5791L46.0468 45.5791L45.0363 46.617Z" fill="#83B5B0" stroke="#83B5B0" stroke-width="0.5"/>
<path d="M45.155 51.5993L44.8835 51.9916H45.3068C45.3164 51.9966 45.3278 52.0026 45.3413 52.0098C45.3515 52.0152 45.3626 52.0212 45.3746 52.0276C45.4278 52.0559 45.498 52.0934 45.5818 52.1365C45.7878 52.2424 46.079 52.3841 46.4335 52.5259C47.1403 52.8087 48.109 53.096 49.1647 53.096C50.2581 53.096 51.4201 52.7737 52.4515 51.9356L52.6575 51.7683L52.4781 51.5727L51.8032 50.8364L51.6363 50.6543L51.4522 50.819C50.372 51.7855 49.0741 51.7953 47.9958 51.5368C47.042 51.3082 46.3057 50.8822 46.0851 50.7546C46.0552 50.7373 46.0348 50.7255 46.0246 50.7204L45.8131 50.6146L45.7011 50.8106L45.155 51.5993Z" fill="#83B5B0" stroke="#83B5B0" stroke-width="0.5"/>
<path d="M25.113 40.334H25.363V40.084C25.363 38.6268 26.5395 37.4502 27.9967 37.4502C28.4937 37.4502 29.0006 37.6163 29.4595 37.9031L29.6618 38.0295L29.7975 37.8334L30.3498 37.0357L30.4913 36.8312L30.2876 36.6886C29.633 36.2304 28.8469 35.9685 27.9967 35.9685C25.7112 35.9685 23.8813 37.7984 23.8813 40.084V40.334H24.1313H25.113Z" fill="#83B5B0" stroke="#83B5B0" stroke-width="0.5"/>
<path d="M30.3283 44.1381H30.5783V43.8881V42.1088C30.5783 40.13 28.9938 38.5455 27.015 38.5455H26.765V38.7955V39.7772V40.0272H27.015C28.1654 40.0272 29.0966 40.9584 29.0966 42.1088V43.8881V44.1381H29.3466H30.3283Z" fill="#83B5B0" stroke="#83B5B0" stroke-width="0.5"/>
<path d="M43.7653 71.3803H44.0153V71.1303V63.6448V63.5058L43.8972 63.4324L28.6808 53.9835L28.4689 53.8519L28.3368 54.0636L24.7782 59.7698L24.6477 59.979L24.8551 60.1124L25.7141 60.6646L25.9278 60.802L26.0617 60.586L28.9368 55.9508L42.5336 64.3365V71.1303V71.3803H42.7836H43.7653Z" fill="#83B5B0" stroke="#83B5B0" stroke-width="0.5"/>
<path d="M30.3897 37.7571H30.6397V37.5071V32.2305C30.6397 27.0929 34.8216 22.9702 39.8999 22.9702H45.422C50.3957 22.9702 54.6503 26.4455 55.6692 31.3001L55.7195 31.5396L55.96 31.4945L56.9417 31.3104L57.1914 31.2636L57.1405 31.0146C56.0121 25.4978 51.0617 21.4885 45.422 21.4885H39.8999C33.9943 21.4885 29.158 26.3249 29.158 32.2305V37.5071V37.7571H29.408H30.3897Z" fill="#83B5B0" stroke="#83B5B0" stroke-width="0.5"/>
<path d="M25.6111 45.8442L25.6111 45.8443L25.616 45.8489C26.7596 46.9324 28.2275 47.067 29.1736 47.0816C29.5135 51.5638 32.5099 55.2281 37.0702 56.5224C37.0703 56.5225 37.0704 56.5225 37.0706 56.5226L45.2305 58.854C46.111 59.1055 46.9931 59.2317 47.8762 59.2317C49.8952 59.2317 51.9111 58.5384 53.5487 57.2794C55.9441 55.5133 57.3296 52.739 57.3296 49.7169V33.4575C57.3296 32.7079 57.2672 31.8906 57.0778 31.0698L57.0239 30.8361L56.7881 30.8803L55.8064 31.0643L55.54 31.1143L55.6113 31.3758C55.7874 32.0214 55.8479 32.7334 55.8479 33.4575V49.7169C55.8479 52.2123 54.6601 54.5332 52.6328 56.0835C50.6099 57.6304 48.054 58.1059 45.6149 57.392L45.6133 57.3915L37.4539 55.0602C37.4536 55.0602 37.4534 55.0601 37.4532 55.0601C33.3187 53.8614 30.6396 50.4562 30.6396 46.3423V45.8515V45.6015H30.3896H29.8988H29.8981H29.8974H29.8966H29.8959H29.8952H29.8945H29.8938H29.8931H29.8924H29.8917H29.891H29.8903H29.8896H29.8889H29.8882H29.8875H29.8868H29.8861H29.8854H29.8847H29.884H29.8833H29.8826H29.8819H29.8812H29.8806H29.8799H29.8792H29.8785H29.8778H29.8772H29.8765H29.8758H29.8751H29.8745H29.8738H29.8731H29.8724H29.8718H29.8711H29.8704H29.8698H29.8691H29.8684H29.8678H29.8671H29.8665H29.8658H29.8651H29.8645H29.8638H29.8632H29.8625H29.8619H29.8612H29.8606H29.8599H29.8593H29.8586H29.858H29.8573H29.8567H29.8561H29.8554H29.8548H29.8541H29.8535H29.8529H29.8522H29.8516H29.851H29.8503H29.8497H29.8491H29.8484H29.8478H29.8472H29.8465H29.8459H29.8453H29.8447H29.8441H29.8434H29.8428H29.8422H29.8416H29.841H29.8403H29.8397H29.8391H29.8385H29.8379H29.8373H29.8367H29.836H29.8354H29.8348H29.8342H29.8336H29.833H29.8324H29.8318H29.8312H29.8306H29.83H29.8294H29.8288H29.8282H29.8276H29.827H29.8264H29.8258H29.8252H29.8246H29.824H29.8234H29.8228H29.8222H29.8216H29.821H29.8205H29.8199H29.8193H29.8187H29.8181H29.8175H29.8169H29.8163H29.8158H29.8152H29.8146H29.814H29.8134H29.8129H29.8123H29.8117H29.8111H29.8105H29.81H29.8094H29.8088H29.8082H29.8077H29.8071H29.8065H29.8059H29.8054H29.8048H29.8042H29.8037H29.8031H29.8025H29.8019H29.8014H29.8008H29.8002H29.7997H29.7991H29.7985H29.798H29.7974H29.7969H29.7963H29.7957H29.7952H29.7946H29.794H29.7935H29.7929H29.7924H29.7918H29.7912H29.7907H29.7901H29.7896H29.789H29.7885H29.7879H29.7873H29.7868H29.7862H29.7857H29.7851H29.7846H29.784H29.7835H29.7829H29.7824H29.7818H29.7813H29.7807H29.7802H29.7796H29.7791H29.7785H29.778H29.7774H29.7769H29.7763H29.7758H29.7752H29.7747H29.7741H29.7736H29.773H29.7725H29.7719H29.7714H29.7708H29.7703H29.7698H29.7692H29.7687H29.7681H29.7676H29.767H29.7665H29.7659H29.7654H29.7649H29.7643H29.7638H29.7632H29.7627H29.7621H29.7616H29.7611H29.7605H29.76H29.7594H29.7589H29.7584H29.7578H29.7573H29.7567H29.7562H29.7557H29.7551H29.7546H29.754H29.7535H29.753H29.7524H29.7519H29.7513H29.7508H29.7503H29.7497H29.7492H29.7486H29.7481H29.7476H29.747H29.7465H29.7459H29.7454H29.7449H29.7443H29.7438H29.7432H29.7427H29.7422H29.7416H29.7411H29.7406H29.74H29.7395H29.7389H29.7384H29.7379H29.7373H29.7368H29.7362H29.7357H29.7352H29.7346H29.7341H29.7335H29.733H29.7324H29.7319H29.7314H29.7308H29.7303H29.7297H29.7292H29.7287H29.7281H29.7276H29.727H29.7265H29.7259H29.7254H29.7249H29.7243H29.7238H29.7232H29.7227H29.7221H29.7216H29.7211H29.7205H29.72H29.7194H29.7189H29.7183H29.7178H29.7172H29.7167H29.7161H29.7156H29.715H29.7145H29.7139H29.7134H29.7129H29.7123H29.7118H29.7112H29.7107H29.7101H29.7096H29.709H29.7084H29.7079H29.7073H29.7068H29.7062H29.7057H29.7051H29.7046H29.704H29.7035H29.7029H29.7024H29.7018H29.7012H29.7007H29.7001H29.6996H29.699H29.6984H29.6979H29.6973H29.6968H29.6962H29.6956H29.6951H29.6945H29.694H29.6934H29.6928H29.6923H29.6917H29.6911H29.6906H29.69H29.6894H29.6889H29.6883H29.6877H29.6872H29.6866H29.686H29.6854H29.6849H29.6843H29.6837H29.6831H29.6826H29.682H29.6814H29.6808H29.6803H29.6797H29.6791H29.6785H29.678H29.6774H29.6768H29.6762H29.6756H29.675H29.6745H29.6739H29.6733H29.6727H29.6721H29.6715H29.6709H29.6704H29.6698H29.6692H29.6686H29.668H29.6674H29.6668H29.6662H29.6656H29.665H29.6644H29.6638H29.6632H29.6626H29.662H29.6614H29.6608H29.6602H29.6596H29.659H29.6584H29.6578H29.6572H29.6566H29.656H29.6554H29.6548H29.6542H29.6535H29.6529H29.6523H29.6517H29.6511H29.6505H29.6499H29.6492H29.6486H29.648H29.6474H29.6468H29.6461H29.6455H29.6449H29.6443H29.6436H29.643H29.6424H29.6417H29.6411H29.6405H29.6399H29.6392H29.6386H29.6379H29.6373H29.6367H29.636H29.6354H29.6348H29.6341H29.6335H29.6328H29.6322H29.6315H29.6309H29.6302H29.6296H29.6289H29.6283H29.6276H29.627H29.6263H29.6257H29.625H29.6244H29.6237H29.623H29.6224H29.6217H29.621H29.6204H29.6197H29.619H29.6184H29.6177H29.617H29.6164H29.6157H29.615H29.6143H29.6137H29.613H29.6123H29.6116H29.6109H29.6102H29.6096H29.6089H29.6082H29.6075H29.6068H29.6061H29.6054H29.6047H29.604H29.6033H29.6026H29.6019H29.6012H29.6005H29.5998H29.5991H29.5984H29.5977H29.597H29.5963H29.5956H29.5949H29.5942H29.5934H29.5927H29.592C29.549 45.6015 29.5053 45.6016 29.461 45.6017C28.5961 45.604 27.4922 45.607 26.6396 44.7544C25.7896 43.9044 25.3016 42.3921 25.3016 40.084V39.834H25.0516H24.0699H23.8199V40.084C23.8199 42.7534 24.4397 44.6728 25.6111 45.8442Z" fill="#83B5B0" stroke="#83B5B0" stroke-width="0.5"/>
<path d="M31.248 51.384L31.0216 51.278L30.9156 51.5044L29.1457 55.2827L29.0397 55.5091L29.2661 55.6152L30.1551 56.0316L30.3815 56.1377L30.4876 55.9113L32.2574 52.1329L32.3635 51.9065L32.1371 51.8005L31.248 51.384Z" fill="#83B5B0" stroke="#83B5B0" stroke-width="0.5"/>
<path d="M43.0417 57.1469L42.8153 57.0409L42.7092 57.2673L40.4449 62.1013L40.3388 62.3277L40.5652 62.4338L41.4542 62.8502L41.6806 62.9563L41.7867 62.7299L44.0511 57.8958L44.1571 57.6694L43.9307 57.5633L43.0417 57.1469Z" fill="#83B5B0" stroke="#83B5B0" stroke-width="0.5"/>
<path d="M35.6003 40.084C35.6003 43.2898 38.1665 45.856 41.3724 45.856C44.5151 45.856 47.1445 43.2916 47.1445 40.084C47.1445 36.8781 44.5783 34.3119 41.3724 34.3119C38.1665 34.3119 35.6003 36.8781 35.6003 40.084ZM37.082 40.084C37.082 37.7064 38.9949 35.7936 41.3724 35.7936C43.6908 35.7936 45.6628 37.7086 45.6628 40.084C45.6628 42.4615 43.7499 44.3743 41.3724 44.3743C38.9949 44.3743 37.082 42.4615 37.082 40.084Z" fill="#83B5B0" stroke="#83B5B0" stroke-width="0.5"/>
<path d="M50.8781 40.1452C50.8781 42.9196 53.1354 45.2424 55.9752 45.2424C58.7516 45.2424 61.0723 42.9216 61.0723 40.1452C61.0723 37.3709 58.815 35.0481 55.9752 35.0481C53.1988 35.0481 50.8781 37.3688 50.8781 40.1452ZM52.3598 40.0839C52.3598 38.0745 53.9658 36.4684 55.9752 36.4684C57.9258 36.4684 59.5906 38.0771 59.5906 40.0839C59.5906 42.0933 57.9846 43.6993 55.9752 43.6993C53.9658 43.6993 52.3598 42.0933 52.3598 40.0839Z" fill="#83B5B0" stroke="#83B5B0" stroke-width="0.5"/>
<path d="M52.237 39.5929V39.3429H51.987H46.4036H46.1536V39.5929V40.5746V40.8246H46.4036H51.987H52.237V40.5746V39.5929Z" fill="#83B5B0" stroke="#83B5B0" stroke-width="0.5"/>
<path d="M40.8816 42.1748H41.8019C42.006 42.1748 42.1891 42.0753 42.3162 41.9482C42.4433 41.8211 42.5428 41.638 42.5428 41.4339V38.7343C42.5428 38.2694 42.1645 37.9934 41.8019 37.9934H40.8816C40.4167 37.9934 40.1407 38.3717 40.1407 38.7343V41.4339C40.1407 41.8988 40.519 42.1748 40.8816 42.1748Z" fill="#83B5B0" stroke="#83B5B0" stroke-width="0.5"/>
<path d="M53.705 42.1748H54.6253C55.0902 42.1748 55.3662 41.7965 55.3662 41.4339V38.7343C55.3662 38.2694 54.9879 37.9934 54.6253 37.9934H53.705C53.2401 37.9934 52.9641 38.3717 52.9641 38.7343V41.4339C52.9641 41.8988 53.3424 42.1748 53.705 42.1748Z" fill="#83B5B0" stroke="#83B5B0" stroke-width="0.5"/>
<path d="M57.3296 50.5145V50.2645H57.0796H56.0979H55.8479V50.5145V78.7998V79.0498H56.0979H57.0796H57.3296V78.7998V50.5145Z" fill="#83B5B0" stroke="#83B5B0" stroke-width="0.5"/>
<path d="M57.3296 100.029V99.7791H57.0796H56.0979H55.8479V100.029V126.596V126.846H56.0979H57.0796H57.3296V126.596V100.029Z" fill="#83B5B0" stroke="#83B5B0" stroke-width="0.5"/>
<path d="M134.082 166.237H134.332V165.987V150.219V149.969H134.082H133.1H132.85V150.219V164.755H57.3296V161.385V161.135H57.0796H56.0979H55.8479V161.385V165.987V166.237H56.0979H134.082Z" fill="#83B5B0" stroke="#83B5B0" stroke-width="0.5"/>
<path d="M134.332 80.8859V80.6359H134.082H133.1H132.85V80.8859V131.934V132.184H133.1H134.082H134.332V131.934V80.8859Z" fill="#83B5B0" stroke="#83B5B0" stroke-width="0.5"/>
<path d="M134.332 68.1852V67.9352H134.082H133.1H132.85V68.1852V70.2713V70.5213H133.1H134.082H134.332V70.2713V68.1852Z" fill="#83B5B0" stroke="#83B5B0" stroke-width="0.5"/>
<path d="M134.332 51.4349V51.1849H134.082H133.1H132.85V51.4349V64.9333V65.1833H133.1H134.082H134.332V64.9333V51.4349Z" fill="#83B5B0" stroke="#83B5B0" stroke-width="0.5"/>
<path d="M134.082 41.4998H134.332V41.2498V1.00006V0.750061H134.082H56.0979H55.8479V1.00006V32.7826V33.0326H56.0979H57.0796H57.3296V32.7826V2.23176H132.85V41.2498V41.4998H133.1H134.082Z" fill="#83B5B0" stroke="#83B5B0" stroke-width="0.5"/>
<path d="M74.1368 27.4493H74.3868V27.1993V17.4436V17.1936H74.1368H64.3811H64.1311V17.4436V27.1993V27.4493H64.3811H74.1368ZM72.8437 25.9676H65.5514V18.6753H72.8437V25.9676Z" fill="#83B5B0" stroke="#83B5B0" stroke-width="0.5"/>
<path d="M91.3779 27.4493H91.6279V27.1993V17.4436V17.1936H91.3779H81.6222H81.3722V17.4436V27.1993V27.4493H81.6222H91.3779ZM90.0848 25.9676H82.7925V18.6753H90.0848V25.9676Z" fill="#83B5B0" stroke="#83B5B0" stroke-width="0.5"/>
<path d="M108.619 27.4493H108.869V27.1993V17.4436V17.1936H108.619H98.8633H98.6133V17.4436V27.1993V27.4493H98.8633H108.619ZM107.326 25.9676H100.034V18.6753H107.326V25.9676Z" fill="#83B5B0" stroke="#83B5B0" stroke-width="0.5"/>
<path d="M125.86 27.4493H126.11V27.1993V17.4436V17.1936H125.86H116.104H115.854V17.4436V27.1993V27.4493H116.104H125.86ZM124.628 25.9676H117.336V18.6753H124.628V25.9676Z" fill="#83B5B0" stroke="#83B5B0" stroke-width="0.5"/>
<path d="M71.6256 9.34448V9.09448H71.3756H67.0807H66.8307V9.34448V10.3262V10.5762H67.0807H71.3756H71.6256V10.3262V9.34448Z" fill="#83B5B0" stroke="#83B5B0" stroke-width="0.5"/>
<path d="M88.8668 9.34448V9.09448H88.6168H84.3219H84.0719V9.34448V10.3262V10.5762H84.3219H88.6168H88.8668V10.3262V9.34448Z" fill="#83B5B0" stroke="#83B5B0" stroke-width="0.5"/>
<path d="M133.841 154.391V154.141H133.591H70.4552H70.2052V154.391V155.373V155.623H70.4552H133.591H133.841V155.373V154.391Z" fill="#83B5B0" stroke="#83B5B0" stroke-width="0.5"/>
<path d="M106.108 9.34448V9.09448H105.858H101.563H101.313V9.34448V10.3262V10.5762H101.563H105.858H106.108V10.3262V9.34448Z" fill="#83B5B0" stroke="#83B5B0" stroke-width="0.5"/>
<path d="M123.349 9.34448V9.09448H123.099H118.804H118.554V9.34448V10.3262V10.5762H118.804H123.099H123.349V10.3262V9.34448Z" fill="#83B5B0" stroke="#83B5B0" stroke-width="0.5"/>
<path d="M74.1368 47.0218H74.3868V46.7718V37.0161V36.7661H74.1368H64.3811H64.1311V37.0161V46.7718V47.0218H64.3811H74.1368ZM72.8437 45.5401H65.5514V38.2478H72.8437V45.5401Z" fill="#83B5B0" stroke="#83B5B0" stroke-width="0.5"/>
<path d="M91.3779 47.0218H91.6279V46.7718V37.0161V36.7661H91.3779H81.6222H81.3722V37.0161V46.7718V47.0218H81.6222H91.3779ZM90.0848 45.5401H82.7925V38.2478H90.0848V45.5401Z" fill="#83B5B0" stroke="#83B5B0" stroke-width="0.5"/>
<path d="M108.619 47.0218H108.869V46.7718V37.0161V36.7661H108.619H98.8633H98.6133V37.0161V46.7718V47.0218H98.8633H108.619ZM107.326 45.5401H100.034V38.2478H107.326V45.5401Z" fill="#83B5B0" stroke="#83B5B0" stroke-width="0.5"/>
<path d="M125.86 47.0218H126.11V46.7718V37.0161V36.7661H125.86H116.104H115.854V37.0161V46.7718V47.0218H116.104H125.86ZM124.628 45.5401H117.336V38.2478H124.628V45.5401Z" fill="#83B5B0" stroke="#83B5B0" stroke-width="0.5"/>
<path d="M74.1368 66.5945H74.3868V66.3445V56.5889V56.3389H74.1368H64.3811H64.1311V56.5889V66.3445V66.5945H64.3811H74.1368ZM72.8437 65.1128H65.5514V57.8206H72.8437V65.1128Z" fill="#83B5B0" stroke="#83B5B0" stroke-width="0.5"/>
<path d="M91.3779 66.5945H91.6279V66.3445V56.5889V56.3389H91.3779H81.6222H81.3722V56.5889V66.3445V66.5945H81.6222H91.3779ZM90.0848 65.1128H82.7925V57.8206H90.0848V65.1128Z" fill="#83B5B0" stroke="#83B5B0" stroke-width="0.5"/>
<path d="M108.619 66.5945H108.869V66.3445V56.5889V56.3389H108.619H98.8633H98.6133V56.5889V66.3445V66.5945H98.8633H108.619ZM107.326 65.1128H100.034V57.8206H107.326V65.1128Z" fill="#83B5B0" stroke="#83B5B0" stroke-width="0.5"/>
<path d="M125.86 66.5945H126.11V66.3445V56.5889V56.3389H125.86H116.104H115.854V56.5889V66.3445V66.5945H116.104H125.86ZM124.628 65.1128H117.336V57.8206H124.628V65.1128Z" fill="#83B5B0" stroke="#83B5B0" stroke-width="0.5"/>
<path d="M74.1366 84.3878H74.3866V84.1378V76.1615V75.9115H74.1366H64.3196H64.0696V76.1615V82.1131V82.3631H64.3196H65.3013H65.5513V82.1131V77.3932H72.8435V84.1378V84.3878H73.0935H74.1366Z" fill="#83B5B0" stroke="#83B5B0" stroke-width="0.5"/>
<path d="M91.3778 85.6763H91.6278V85.4263V76.1615V75.9115H91.3778H81.5608H81.3108V76.1615V85.4263V85.6763H81.5608H82.5425H82.7925V85.4263V77.3932H90.1461V85.4263V85.6763H90.3961H91.3778Z" fill="#83B5B0" stroke="#83B5B0" stroke-width="0.5"/>
<path d="M99.7837 84.6332H100.034V84.3832V77.3932H107.387V82.4812V82.7312H107.637H108.619H108.869V82.4812V76.1615V75.9115H108.619H98.802H98.552V76.1615V84.3832V84.6332H98.802H99.7837Z" fill="#83B5B0" stroke="#83B5B0" stroke-width="0.5"/>
<path d="M125.86 86.1672H126.11V85.9172V81.0087V80.7587H125.86H124.878H124.628V81.0087V84.6855H117.577H117.327V84.9355V85.9172V86.1672H117.577H125.86Z" fill="#83B5B0" stroke="#83B5B0" stroke-width="0.5"/>
<path d="M74.1366 105.74H74.3866V105.49V102.606V102.356H74.1366H73.0935H72.8435V102.606V104.258H65.5513V101.747V101.497H65.3013H64.3196H64.0696V101.747V105.49V105.74H64.3196H74.1366Z" fill="#83B5B0" stroke="#83B5B0" stroke-width="0.5"/>
<path d="M91.3778 105.74H91.6278V105.49V100.949V100.699H91.3778H90.3961H90.1461V100.949V104.258H82.7925V102.299V102.049H82.5425H81.5608H81.3108V102.299V105.49V105.74H81.5608H91.3778Z" fill="#83B5B0" stroke="#83B5B0" stroke-width="0.5"/>
<path d="M108.619 105.74H108.869V105.49V95.673V95.423H108.619H104.938H104.688V95.673V96.716V96.966H104.938H107.387V104.258H100.034V98.5567V98.3067H99.7837H98.802H98.552V98.5567V105.49V105.74H98.802H108.619Z" fill="#83B5B0" stroke="#83B5B0" stroke-width="0.5"/>
<path d="M125.86 105.74H126.11V105.49V95.7343V95.4843H125.86H116.104H115.854V95.7343V105.49V105.74H116.104H125.86ZM124.628 104.258H117.336V96.966H124.628V104.258Z" fill="#83B5B0" stroke="#83B5B0" stroke-width="0.5"/>
<path d="M65.3013 123.165H65.5513V122.915V116.538H72.8435V118.62V118.87H73.0935H74.1366H74.3866V118.62V115.245V114.995H74.1366H64.3196H64.0696V115.245V122.915V123.165H64.3196H65.3013Z" fill="#83B5B0" stroke="#83B5B0" stroke-width="0.5"/>
<path d="M125.86 125.312H126.11V125.062V115.245V114.995H125.86H116.043H115.793V115.245V121.136V121.386H116.043H117.086H117.336V121.136V116.538H124.628V123.831H122.24H121.99V124.081V125.062V125.312H122.24H125.86Z" fill="#83B5B0" stroke="#83B5B0" stroke-width="0.5"/>
<path d="M91.3778 148.873H91.6278V148.623V140.708V140.458H91.3778H90.3961H90.1461V140.708V147.392H82.7925V147.212V146.962H82.5425H81.5608H81.3108V147.212V148.623V148.873H81.5608H91.3778Z" fill="#83B5B0" stroke="#83B5B0" stroke-width="0.5"/>
<path d="M108.619 148.873H108.869V148.623V138.868V138.618H108.619H98.8633H98.6133V138.868V148.623V148.873H98.8633H108.619ZM107.326 147.392H100.034V140.099H107.326V147.392Z" fill="#83B5B0" stroke="#83B5B0" stroke-width="0.5"/>
<path d="M125.86 148.873H126.11V148.623V146.108V145.858H125.86H124.878H124.628V146.108V147.392H117.336V141.629V141.379H117.086H116.043H115.793V141.629V148.623V148.873H116.043H125.86Z" fill="#83B5B0" stroke="#83B5B0" stroke-width="0.5"/>
</svg>
